<mxfile host="Electron" agent="Mozilla/5.0 (Windows NT 10.0; Win64; x64) AppleWebKit/537.36 (KHTML, like Gecko) draw.io/24.7.8 Chrome/128.0.6613.36 Electron/32.0.1 Safari/537.36" version="24.7.8">
  <diagram id="R2lEEEUBdFMjLlhIrx00" name="Page-1">
    <mxGraphModel dx="4654" dy="-740" grid="1" gridSize="10" guides="1" tooltips="1" connect="1" arrows="1" fold="1" page="1" pageScale="1" pageWidth="850" pageHeight="1100" math="0" shadow="0" extFonts="Permanent Marker^https://fonts.googleapis.com/css?family=Permanent+Marker">
      <root>
        <mxCell id="0" />
        <mxCell id="1" parent="0" />
        <mxCell id="lM22bVPYpMZWwrCQhP3n-1" value="Customer" style="whiteSpace=wrap;html=1;align=center;" vertex="1" parent="1">
          <mxGeometry x="-817.75" y="3010" width="100" height="40" as="geometry" />
        </mxCell>
        <mxCell id="lM22bVPYpMZWwrCQhP3n-14" style="edgeStyle=orthogonalEdgeStyle;rounded=0;orthogonalLoop=1;jettySize=auto;html=1;exitX=0;exitY=0.5;exitDx=0;exitDy=0;entryX=1;entryY=1;entryDx=0;entryDy=0;" edge="1" parent="1" source="lM22bVPYpMZWwrCQhP3n-2" target="lM22bVPYpMZWwrCQhP3n-1">
          <mxGeometry relative="1" as="geometry" />
        </mxCell>
        <mxCell id="lM22bVPYpMZWwrCQhP3n-2" value="Username" style="ellipse;whiteSpace=wrap;html=1;align=center;" vertex="1" parent="1">
          <mxGeometry x="-674.4" y="3050" width="100" height="40" as="geometry" />
        </mxCell>
        <mxCell id="lM22bVPYpMZWwrCQhP3n-12" style="edgeStyle=orthogonalEdgeStyle;rounded=0;orthogonalLoop=1;jettySize=auto;html=1;exitX=0;exitY=1;exitDx=0;exitDy=0;entryX=0.75;entryY=0;entryDx=0;entryDy=0;" edge="1" parent="1" source="lM22bVPYpMZWwrCQhP3n-3" target="lM22bVPYpMZWwrCQhP3n-1">
          <mxGeometry relative="1" as="geometry" />
        </mxCell>
        <mxCell id="lM22bVPYpMZWwrCQhP3n-3" value="Customer_id" style="ellipse;whiteSpace=wrap;html=1;align=center;" vertex="1" parent="1">
          <mxGeometry x="-705.4200000000001" y="2900" width="100" height="40" as="geometry" />
        </mxCell>
        <mxCell id="lM22bVPYpMZWwrCQhP3n-11" style="edgeStyle=orthogonalEdgeStyle;rounded=0;orthogonalLoop=1;jettySize=auto;html=1;exitX=0.5;exitY=1;exitDx=0;exitDy=0;entryX=0.5;entryY=0;entryDx=0;entryDy=0;" edge="1" parent="1" source="lM22bVPYpMZWwrCQhP3n-4" target="lM22bVPYpMZWwrCQhP3n-1">
          <mxGeometry relative="1" as="geometry" />
        </mxCell>
        <mxCell id="lM22bVPYpMZWwrCQhP3n-4" value="Number" style="ellipse;whiteSpace=wrap;html=1;align=center;" vertex="1" parent="1">
          <mxGeometry x="-815.4200000000001" y="2860" width="100" height="40" as="geometry" />
        </mxCell>
        <mxCell id="lM22bVPYpMZWwrCQhP3n-10" style="edgeStyle=orthogonalEdgeStyle;rounded=0;orthogonalLoop=1;jettySize=auto;html=1;exitX=1;exitY=1;exitDx=0;exitDy=0;entryX=0.25;entryY=0;entryDx=0;entryDy=0;" edge="1" parent="1" source="lM22bVPYpMZWwrCQhP3n-6" target="lM22bVPYpMZWwrCQhP3n-1">
          <mxGeometry relative="1" as="geometry" />
        </mxCell>
        <mxCell id="lM22bVPYpMZWwrCQhP3n-6" value="Email" style="ellipse;whiteSpace=wrap;html=1;align=center;" vertex="1" parent="1">
          <mxGeometry x="-904.3600000000001" y="2920" width="100" height="40" as="geometry" />
        </mxCell>
        <mxCell id="lM22bVPYpMZWwrCQhP3n-9" style="edgeStyle=orthogonalEdgeStyle;rounded=0;orthogonalLoop=1;jettySize=auto;html=1;exitX=1;exitY=0.5;exitDx=0;exitDy=0;entryX=0;entryY=0.5;entryDx=0;entryDy=0;" edge="1" parent="1" source="lM22bVPYpMZWwrCQhP3n-7" target="lM22bVPYpMZWwrCQhP3n-1">
          <mxGeometry relative="1" as="geometry" />
        </mxCell>
        <mxCell id="lM22bVPYpMZWwrCQhP3n-7" value="Password" style="ellipse;whiteSpace=wrap;html=1;align=center;" vertex="1" parent="1">
          <mxGeometry x="-950" y="2980" width="100" height="40" as="geometry" />
        </mxCell>
        <mxCell id="lM22bVPYpMZWwrCQhP3n-13" style="edgeStyle=orthogonalEdgeStyle;rounded=0;orthogonalLoop=1;jettySize=auto;html=1;exitX=0;exitY=0.5;exitDx=0;exitDy=0;entryX=1;entryY=0.25;entryDx=0;entryDy=0;" edge="1" parent="1" source="lM22bVPYpMZWwrCQhP3n-8" target="lM22bVPYpMZWwrCQhP3n-1">
          <mxGeometry relative="1" as="geometry" />
        </mxCell>
        <mxCell id="lM22bVPYpMZWwrCQhP3n-8" value="Address" style="ellipse;whiteSpace=wrap;html=1;align=center;" vertex="1" parent="1">
          <mxGeometry x="-658.5" y="2970" width="100" height="40" as="geometry" />
        </mxCell>
        <mxCell id="lM22bVPYpMZWwrCQhP3n-16" value="DP_Data" style="whiteSpace=wrap;html=1;align=center;" vertex="1" parent="1">
          <mxGeometry x="447.54999999999995" y="2990" width="100" height="40" as="geometry" />
        </mxCell>
        <mxCell id="lM22bVPYpMZWwrCQhP3n-25" style="edgeStyle=orthogonalEdgeStyle;rounded=0;orthogonalLoop=1;jettySize=auto;html=1;exitX=0.5;exitY=1;exitDx=0;exitDy=0;entryX=0.5;entryY=0;entryDx=0;entryDy=0;" edge="1" parent="1" source="lM22bVPYpMZWwrCQhP3n-17" target="lM22bVPYpMZWwrCQhP3n-16">
          <mxGeometry relative="1" as="geometry" />
        </mxCell>
        <mxCell id="lM22bVPYpMZWwrCQhP3n-17" value="DP_id" style="ellipse;whiteSpace=wrap;html=1;align=center;" vertex="1" parent="1">
          <mxGeometry x="397.5" y="2900" width="100" height="40" as="geometry" />
        </mxCell>
        <mxCell id="lM22bVPYpMZWwrCQhP3n-29" style="edgeStyle=orthogonalEdgeStyle;rounded=0;orthogonalLoop=1;jettySize=auto;html=1;exitX=0;exitY=0.5;exitDx=0;exitDy=0;entryX=0.75;entryY=1;entryDx=0;entryDy=0;" edge="1" parent="1" source="lM22bVPYpMZWwrCQhP3n-18" target="lM22bVPYpMZWwrCQhP3n-16">
          <mxGeometry relative="1" as="geometry" />
        </mxCell>
        <mxCell id="lM22bVPYpMZWwrCQhP3n-18" value="Dname" style="ellipse;whiteSpace=wrap;html=1;align=center;" vertex="1" parent="1">
          <mxGeometry x="576.95" y="3020" width="100" height="40" as="geometry" />
        </mxCell>
        <mxCell id="lM22bVPYpMZWwrCQhP3n-26" style="edgeStyle=orthogonalEdgeStyle;rounded=0;orthogonalLoop=1;jettySize=auto;html=1;exitX=0;exitY=1;exitDx=0;exitDy=0;entryX=0.75;entryY=0;entryDx=0;entryDy=0;" edge="1" parent="1" source="lM22bVPYpMZWwrCQhP3n-19" target="lM22bVPYpMZWwrCQhP3n-16">
          <mxGeometry relative="1" as="geometry" />
        </mxCell>
        <mxCell id="lM22bVPYpMZWwrCQhP3n-19" value="Demail" style="ellipse;whiteSpace=wrap;html=1;align=center;" vertex="1" parent="1">
          <mxGeometry x="514.57" y="2900" width="100" height="40" as="geometry" />
        </mxCell>
        <mxCell id="lM22bVPYpMZWwrCQhP3n-23" style="edgeStyle=orthogonalEdgeStyle;rounded=0;orthogonalLoop=1;jettySize=auto;html=1;exitX=1;exitY=0.5;exitDx=0;exitDy=0;entryX=0;entryY=0.5;entryDx=0;entryDy=0;" edge="1" parent="1" source="lM22bVPYpMZWwrCQhP3n-20" target="lM22bVPYpMZWwrCQhP3n-16">
          <mxGeometry relative="1" as="geometry" />
        </mxCell>
        <mxCell id="lM22bVPYpMZWwrCQhP3n-20" value="Dnumber" style="ellipse;whiteSpace=wrap;html=1;align=center;" vertex="1" parent="1">
          <mxGeometry x="315.9" y="3020" width="100" height="40" as="geometry" />
        </mxCell>
        <mxCell id="lM22bVPYpMZWwrCQhP3n-28" style="edgeStyle=orthogonalEdgeStyle;rounded=0;orthogonalLoop=1;jettySize=auto;html=1;exitX=0;exitY=0.5;exitDx=0;exitDy=0;entryX=1;entryY=0.25;entryDx=0;entryDy=0;" edge="1" parent="1" source="lM22bVPYpMZWwrCQhP3n-21" target="lM22bVPYpMZWwrCQhP3n-16">
          <mxGeometry relative="1" as="geometry" />
        </mxCell>
        <mxCell id="lM22bVPYpMZWwrCQhP3n-21" value="Daddress" style="ellipse;whiteSpace=wrap;html=1;align=center;" vertex="1" parent="1">
          <mxGeometry x="594.3" y="2950" width="100" height="40" as="geometry" />
        </mxCell>
        <mxCell id="lM22bVPYpMZWwrCQhP3n-24" style="edgeStyle=orthogonalEdgeStyle;rounded=0;orthogonalLoop=1;jettySize=auto;html=1;exitX=1;exitY=0.5;exitDx=0;exitDy=0;entryX=0;entryY=0;entryDx=0;entryDy=0;" edge="1" parent="1" source="lM22bVPYpMZWwrCQhP3n-22" target="lM22bVPYpMZWwrCQhP3n-16">
          <mxGeometry relative="1" as="geometry" />
        </mxCell>
        <mxCell id="lM22bVPYpMZWwrCQhP3n-22" value="Dpassword" style="ellipse;whiteSpace=wrap;html=1;align=center;" vertex="1" parent="1">
          <mxGeometry x="312.20000000000005" y="2960" width="100" height="40" as="geometry" />
        </mxCell>
        <mxCell id="lM22bVPYpMZWwrCQhP3n-30" value="Seller_Data" style="whiteSpace=wrap;html=1;align=center;" vertex="1" parent="1">
          <mxGeometry x="-24.65000000000009" y="2980" width="100" height="40" as="geometry" />
        </mxCell>
        <mxCell id="lM22bVPYpMZWwrCQhP3n-31" style="edgeStyle=orthogonalEdgeStyle;rounded=0;orthogonalLoop=1;jettySize=auto;html=1;exitX=0.5;exitY=1;exitDx=0;exitDy=0;entryX=0.5;entryY=0;entryDx=0;entryDy=0;" edge="1" parent="1" source="lM22bVPYpMZWwrCQhP3n-32" target="lM22bVPYpMZWwrCQhP3n-30">
          <mxGeometry relative="1" as="geometry" />
        </mxCell>
        <mxCell id="lM22bVPYpMZWwrCQhP3n-32" value="Seller_id" style="ellipse;whiteSpace=wrap;html=1;align=center;" vertex="1" parent="1">
          <mxGeometry x="-74.70000000000005" y="2890" width="100" height="40" as="geometry" />
        </mxCell>
        <mxCell id="lM22bVPYpMZWwrCQhP3n-33" style="edgeStyle=orthogonalEdgeStyle;rounded=0;orthogonalLoop=1;jettySize=auto;html=1;exitX=0;exitY=0.5;exitDx=0;exitDy=0;entryX=0.75;entryY=1;entryDx=0;entryDy=0;" edge="1" parent="1" source="lM22bVPYpMZWwrCQhP3n-34" target="lM22bVPYpMZWwrCQhP3n-30">
          <mxGeometry relative="1" as="geometry" />
        </mxCell>
        <mxCell id="lM22bVPYpMZWwrCQhP3n-34" value="Sname" style="ellipse;whiteSpace=wrap;html=1;align=center;" vertex="1" parent="1">
          <mxGeometry x="104.75" y="3010" width="100" height="40" as="geometry" />
        </mxCell>
        <mxCell id="lM22bVPYpMZWwrCQhP3n-35" style="edgeStyle=orthogonalEdgeStyle;rounded=0;orthogonalLoop=1;jettySize=auto;html=1;exitX=0;exitY=1;exitDx=0;exitDy=0;entryX=0.75;entryY=0;entryDx=0;entryDy=0;" edge="1" parent="1" source="lM22bVPYpMZWwrCQhP3n-36" target="lM22bVPYpMZWwrCQhP3n-30">
          <mxGeometry relative="1" as="geometry" />
        </mxCell>
        <mxCell id="lM22bVPYpMZWwrCQhP3n-36" value="Semail" style="ellipse;whiteSpace=wrap;html=1;align=center;" vertex="1" parent="1">
          <mxGeometry x="42.370000000000005" y="2890" width="100" height="40" as="geometry" />
        </mxCell>
        <mxCell id="lM22bVPYpMZWwrCQhP3n-37" style="edgeStyle=orthogonalEdgeStyle;rounded=0;orthogonalLoop=1;jettySize=auto;html=1;exitX=1;exitY=0.5;exitDx=0;exitDy=0;entryX=0;entryY=0.5;entryDx=0;entryDy=0;" edge="1" parent="1" source="lM22bVPYpMZWwrCQhP3n-38" target="lM22bVPYpMZWwrCQhP3n-30">
          <mxGeometry relative="1" as="geometry" />
        </mxCell>
        <mxCell id="lM22bVPYpMZWwrCQhP3n-38" value="Snumber" style="ellipse;whiteSpace=wrap;html=1;align=center;" vertex="1" parent="1">
          <mxGeometry x="-156.30000000000007" y="3010" width="100" height="40" as="geometry" />
        </mxCell>
        <mxCell id="lM22bVPYpMZWwrCQhP3n-39" style="edgeStyle=orthogonalEdgeStyle;rounded=0;orthogonalLoop=1;jettySize=auto;html=1;exitX=0;exitY=0.5;exitDx=0;exitDy=0;entryX=1;entryY=0.25;entryDx=0;entryDy=0;" edge="1" parent="1" source="lM22bVPYpMZWwrCQhP3n-40" target="lM22bVPYpMZWwrCQhP3n-30">
          <mxGeometry relative="1" as="geometry" />
        </mxCell>
        <mxCell id="lM22bVPYpMZWwrCQhP3n-40" value="Saddress" style="ellipse;whiteSpace=wrap;html=1;align=center;" vertex="1" parent="1">
          <mxGeometry x="122.09999999999991" y="2940" width="100" height="40" as="geometry" />
        </mxCell>
        <mxCell id="lM22bVPYpMZWwrCQhP3n-41" style="edgeStyle=orthogonalEdgeStyle;rounded=0;orthogonalLoop=1;jettySize=auto;html=1;exitX=1;exitY=0.5;exitDx=0;exitDy=0;entryX=0;entryY=0;entryDx=0;entryDy=0;" edge="1" parent="1" source="lM22bVPYpMZWwrCQhP3n-42" target="lM22bVPYpMZWwrCQhP3n-30">
          <mxGeometry relative="1" as="geometry" />
        </mxCell>
        <mxCell id="lM22bVPYpMZWwrCQhP3n-42" value="Spassword" style="ellipse;whiteSpace=wrap;html=1;align=center;" vertex="1" parent="1">
          <mxGeometry x="-160" y="2950" width="100" height="40" as="geometry" />
        </mxCell>
        <mxCell id="lM22bVPYpMZWwrCQhP3n-43" value="Help Reuest" style="whiteSpace=wrap;html=1;align=center;" vertex="1" parent="1">
          <mxGeometry x="-1225.29" y="3080" width="100" height="40" as="geometry" />
        </mxCell>
        <mxCell id="lM22bVPYpMZWwrCQhP3n-50" style="edgeStyle=orthogonalEdgeStyle;rounded=0;orthogonalLoop=1;jettySize=auto;html=1;exitX=0;exitY=1;exitDx=0;exitDy=0;entryX=0.25;entryY=0;entryDx=0;entryDy=0;" edge="1" parent="1" source="lM22bVPYpMZWwrCQhP3n-44" target="lM22bVPYpMZWwrCQhP3n-43">
          <mxGeometry relative="1" as="geometry" />
        </mxCell>
        <mxCell id="lM22bVPYpMZWwrCQhP3n-44" value="help_id" style="ellipse;whiteSpace=wrap;html=1;align=center;" vertex="1" parent="1">
          <mxGeometry x="-1206.87" y="3020" width="100" height="40" as="geometry" />
        </mxCell>
        <mxCell id="lM22bVPYpMZWwrCQhP3n-51" style="edgeStyle=orthogonalEdgeStyle;rounded=0;orthogonalLoop=1;jettySize=auto;html=1;exitX=0;exitY=0.5;exitDx=0;exitDy=0;entryX=1;entryY=0.25;entryDx=0;entryDy=0;" edge="1" parent="1" source="lM22bVPYpMZWwrCQhP3n-45" target="lM22bVPYpMZWwrCQhP3n-43">
          <mxGeometry relative="1" as="geometry" />
        </mxCell>
        <mxCell id="lM22bVPYpMZWwrCQhP3n-45" value="customer_id&lt;div&gt;(FK)&lt;/div&gt;" style="ellipse;whiteSpace=wrap;html=1;align=center;" vertex="1" parent="1">
          <mxGeometry x="-1092.1" y="3070" width="100" height="40" as="geometry" />
        </mxCell>
        <mxCell id="lM22bVPYpMZWwrCQhP3n-49" style="edgeStyle=orthogonalEdgeStyle;rounded=0;orthogonalLoop=1;jettySize=auto;html=1;exitX=1;exitY=0.5;exitDx=0;exitDy=0;entryX=0;entryY=0;entryDx=0;entryDy=0;" edge="1" parent="1" source="lM22bVPYpMZWwrCQhP3n-46" target="lM22bVPYpMZWwrCQhP3n-43">
          <mxGeometry relative="1" as="geometry" />
        </mxCell>
        <mxCell id="lM22bVPYpMZWwrCQhP3n-46" value="issue" style="ellipse;whiteSpace=wrap;html=1;align=center;" vertex="1" parent="1">
          <mxGeometry x="-1347.89" y="3060" width="100" height="40" as="geometry" />
        </mxCell>
        <mxCell id="lM22bVPYpMZWwrCQhP3n-54" value="Review_Rating" style="whiteSpace=wrap;html=1;align=center;" vertex="1" parent="1">
          <mxGeometry x="-1381.87" y="3880" width="100" height="40" as="geometry" />
        </mxCell>
        <mxCell id="lM22bVPYpMZWwrCQhP3n-63" style="edgeStyle=orthogonalEdgeStyle;rounded=0;orthogonalLoop=1;jettySize=auto;html=1;exitX=0;exitY=1;exitDx=0;exitDy=0;entryX=0.25;entryY=0;entryDx=0;entryDy=0;" edge="1" parent="1" source="lM22bVPYpMZWwrCQhP3n-55" target="lM22bVPYpMZWwrCQhP3n-54">
          <mxGeometry relative="1" as="geometry" />
        </mxCell>
        <mxCell id="lM22bVPYpMZWwrCQhP3n-55" value="review_id" style="ellipse;whiteSpace=wrap;html=1;align=center;" vertex="1" parent="1">
          <mxGeometry x="-1364.97" y="3810" width="100" height="40" as="geometry" />
        </mxCell>
        <mxCell id="lM22bVPYpMZWwrCQhP3n-68" style="edgeStyle=orthogonalEdgeStyle;rounded=0;orthogonalLoop=1;jettySize=auto;html=1;exitX=0;exitY=1;exitDx=0;exitDy=0;entryX=1;entryY=0.25;entryDx=0;entryDy=0;" edge="1" parent="1" source="lM22bVPYpMZWwrCQhP3n-56" target="lM22bVPYpMZWwrCQhP3n-54">
          <mxGeometry relative="1" as="geometry" />
        </mxCell>
        <mxCell id="lM22bVPYpMZWwrCQhP3n-56" value="customer_id (FK)" style="ellipse;whiteSpace=wrap;html=1;align=center;" vertex="1" parent="1">
          <mxGeometry x="-1249.07" y="3810" width="100" height="40" as="geometry" />
        </mxCell>
        <mxCell id="lM22bVPYpMZWwrCQhP3n-70" style="edgeStyle=orthogonalEdgeStyle;rounded=0;orthogonalLoop=1;jettySize=auto;html=1;exitX=0;exitY=0.5;exitDx=0;exitDy=0;entryX=1;entryY=0.75;entryDx=0;entryDy=0;" edge="1" parent="1" source="lM22bVPYpMZWwrCQhP3n-57" target="lM22bVPYpMZWwrCQhP3n-54">
          <mxGeometry relative="1" as="geometry" />
        </mxCell>
        <mxCell id="lM22bVPYpMZWwrCQhP3n-57" value="order_id (FK)" style="ellipse;whiteSpace=wrap;html=1;align=center;" vertex="1" parent="1">
          <mxGeometry x="-1220" y="3940" width="100" height="40" as="geometry" />
        </mxCell>
        <mxCell id="lM22bVPYpMZWwrCQhP3n-72" style="edgeStyle=orthogonalEdgeStyle;rounded=0;orthogonalLoop=1;jettySize=auto;html=1;exitX=0;exitY=0.5;exitDx=0;exitDy=0;entryX=1;entryY=1;entryDx=0;entryDy=0;" edge="1" parent="1" source="lM22bVPYpMZWwrCQhP3n-58" target="lM22bVPYpMZWwrCQhP3n-54">
          <mxGeometry relative="1" as="geometry" />
        </mxCell>
        <mxCell id="lM22bVPYpMZWwrCQhP3n-58" value="product (FK)" style="ellipse;whiteSpace=wrap;html=1;align=center;" vertex="1" parent="1">
          <mxGeometry x="-1320" y="3970" width="100" height="40" as="geometry" />
        </mxCell>
        <mxCell id="lM22bVPYpMZWwrCQhP3n-67" style="edgeStyle=orthogonalEdgeStyle;rounded=0;orthogonalLoop=1;jettySize=auto;html=1;exitX=1;exitY=0;exitDx=0;exitDy=0;entryX=0;entryY=1;entryDx=0;entryDy=0;" edge="1" parent="1" source="lM22bVPYpMZWwrCQhP3n-60" target="lM22bVPYpMZWwrCQhP3n-54">
          <mxGeometry relative="1" as="geometry" />
        </mxCell>
        <mxCell id="lM22bVPYpMZWwrCQhP3n-60" value="rid (FK)" style="ellipse;whiteSpace=wrap;html=1;align=center;" vertex="1" parent="1">
          <mxGeometry x="-1528.55" y="3940" width="100" height="40" as="geometry" />
        </mxCell>
        <mxCell id="lM22bVPYpMZWwrCQhP3n-66" style="edgeStyle=orthogonalEdgeStyle;rounded=0;orthogonalLoop=1;jettySize=auto;html=1;exitX=1;exitY=0.5;exitDx=0;exitDy=0;" edge="1" parent="1" source="lM22bVPYpMZWwrCQhP3n-61">
          <mxGeometry relative="1" as="geometry">
            <mxPoint x="-1381.87" y="3899.666666666667" as="targetPoint" />
          </mxGeometry>
        </mxCell>
        <mxCell id="lM22bVPYpMZWwrCQhP3n-61" value="rating" style="ellipse;whiteSpace=wrap;html=1;align=center;" vertex="1" parent="1">
          <mxGeometry x="-1551.87" y="3880" width="100" height="40" as="geometry" />
        </mxCell>
        <mxCell id="lM22bVPYpMZWwrCQhP3n-65" style="edgeStyle=orthogonalEdgeStyle;rounded=0;orthogonalLoop=1;jettySize=auto;html=1;exitX=1;exitY=1;exitDx=0;exitDy=0;entryX=0;entryY=0;entryDx=0;entryDy=0;" edge="1" parent="1" source="lM22bVPYpMZWwrCQhP3n-62" target="lM22bVPYpMZWwrCQhP3n-54">
          <mxGeometry relative="1" as="geometry" />
        </mxCell>
        <mxCell id="lM22bVPYpMZWwrCQhP3n-62" value="review" style="ellipse;whiteSpace=wrap;html=1;align=center;" vertex="1" parent="1">
          <mxGeometry x="-1500.12" y="3820" width="100" height="40" as="geometry" />
        </mxCell>
        <mxCell id="lM22bVPYpMZWwrCQhP3n-73" value="Buy Back" style="whiteSpace=wrap;html=1;align=center;" vertex="1" parent="1">
          <mxGeometry x="336.95" y="3160" width="100" height="40" as="geometry" />
        </mxCell>
        <mxCell id="lM22bVPYpMZWwrCQhP3n-80" style="edgeStyle=orthogonalEdgeStyle;rounded=0;orthogonalLoop=1;jettySize=auto;html=1;exitX=0.5;exitY=1;exitDx=0;exitDy=0;entryX=0.5;entryY=0;entryDx=0;entryDy=0;" edge="1" parent="1" source="lM22bVPYpMZWwrCQhP3n-74" target="lM22bVPYpMZWwrCQhP3n-73">
          <mxGeometry relative="1" as="geometry" />
        </mxCell>
        <mxCell id="lM22bVPYpMZWwrCQhP3n-74" value="Buy_Back_id" style="ellipse;whiteSpace=wrap;html=1;align=center;" vertex="1" parent="1">
          <mxGeometry x="316.65000000000003" y="3100" width="100" height="40" as="geometry" />
        </mxCell>
        <mxCell id="lM22bVPYpMZWwrCQhP3n-81" style="edgeStyle=orthogonalEdgeStyle;rounded=0;orthogonalLoop=1;jettySize=auto;html=1;exitX=0;exitY=0.5;exitDx=0;exitDy=0;entryX=0.75;entryY=0;entryDx=0;entryDy=0;" edge="1" parent="1" source="lM22bVPYpMZWwrCQhP3n-75" target="lM22bVPYpMZWwrCQhP3n-73">
          <mxGeometry relative="1" as="geometry" />
        </mxCell>
        <mxCell id="lM22bVPYpMZWwrCQhP3n-75" value="product (FK)" style="ellipse;whiteSpace=wrap;html=1;align=center;" vertex="1" parent="1">
          <mxGeometry x="442.3" y="3120" width="100" height="40" as="geometry" />
        </mxCell>
        <mxCell id="lM22bVPYpMZWwrCQhP3n-79" style="edgeStyle=orthogonalEdgeStyle;rounded=0;orthogonalLoop=1;jettySize=auto;html=1;exitX=1;exitY=0.5;exitDx=0;exitDy=0;entryX=0;entryY=0.25;entryDx=0;entryDy=0;" edge="1" parent="1" source="lM22bVPYpMZWwrCQhP3n-76" target="lM22bVPYpMZWwrCQhP3n-73">
          <mxGeometry relative="1" as="geometry" />
        </mxCell>
        <mxCell id="lM22bVPYpMZWwrCQhP3n-76" value="Total Price" style="ellipse;whiteSpace=wrap;html=1;align=center;" vertex="1" parent="1">
          <mxGeometry x="221.57999999999998" y="3130" width="100" height="40" as="geometry" />
        </mxCell>
        <mxCell id="lM22bVPYpMZWwrCQhP3n-82" style="edgeStyle=orthogonalEdgeStyle;rounded=0;orthogonalLoop=1;jettySize=auto;html=1;exitX=0;exitY=0.5;exitDx=0;exitDy=0;entryX=1;entryY=0.5;entryDx=0;entryDy=0;" edge="1" parent="1" source="lM22bVPYpMZWwrCQhP3n-77" target="lM22bVPYpMZWwrCQhP3n-73">
          <mxGeometry relative="1" as="geometry" />
        </mxCell>
        <mxCell id="lM22bVPYpMZWwrCQhP3n-77" value="status" style="ellipse;whiteSpace=wrap;html=1;align=center;" vertex="1" parent="1">
          <mxGeometry x="452.74999999999994" y="3190" width="100" height="40" as="geometry" />
        </mxCell>
        <mxCell id="lM22bVPYpMZWwrCQhP3n-83" style="edgeStyle=orthogonalEdgeStyle;rounded=0;orthogonalLoop=1;jettySize=auto;html=1;exitX=1;exitY=0.5;exitDx=0;exitDy=0;entryX=0;entryY=1;entryDx=0;entryDy=0;" edge="1" parent="1" source="lM22bVPYpMZWwrCQhP3n-78" target="lM22bVPYpMZWwrCQhP3n-73">
          <mxGeometry relative="1" as="geometry" />
        </mxCell>
        <mxCell id="lM22bVPYpMZWwrCQhP3n-78" value="Customization&lt;div&gt;Options&lt;/div&gt;" style="ellipse;whiteSpace=wrap;html=1;align=center;" vertex="1" parent="1">
          <mxGeometry x="204.75000000000006" y="3180" width="100" height="40" as="geometry" />
        </mxCell>
        <mxCell id="lM22bVPYpMZWwrCQhP3n-84" value="Cart" style="whiteSpace=wrap;html=1;align=center;" vertex="1" parent="1">
          <mxGeometry x="-89.68999999999998" y="3540" width="100" height="40" as="geometry" />
        </mxCell>
        <mxCell id="lM22bVPYpMZWwrCQhP3n-94" style="edgeStyle=orthogonalEdgeStyle;rounded=0;orthogonalLoop=1;jettySize=auto;html=1;exitX=0.5;exitY=1;exitDx=0;exitDy=0;entryX=0.5;entryY=0;entryDx=0;entryDy=0;" edge="1" parent="1" source="lM22bVPYpMZWwrCQhP3n-86" target="lM22bVPYpMZWwrCQhP3n-84">
          <mxGeometry relative="1" as="geometry" />
        </mxCell>
        <mxCell id="lM22bVPYpMZWwrCQhP3n-86" value="cart_id" style="ellipse;whiteSpace=wrap;html=1;align=center;" vertex="1" parent="1">
          <mxGeometry x="-84.19999999999999" y="3430" width="100" height="40" as="geometry" />
        </mxCell>
        <mxCell id="lM22bVPYpMZWwrCQhP3n-87" value="product_id (FK)" style="ellipse;whiteSpace=wrap;html=1;align=center;" vertex="1" parent="1">
          <mxGeometry x="20.010000000000034" y="3460" width="100" height="40" as="geometry" />
        </mxCell>
        <mxCell id="lM22bVPYpMZWwrCQhP3n-99" style="edgeStyle=orthogonalEdgeStyle;rounded=0;orthogonalLoop=1;jettySize=auto;html=1;exitX=1;exitY=0;exitDx=0;exitDy=0;entryX=0;entryY=0.75;entryDx=0;entryDy=0;" edge="1" parent="1" source="lM22bVPYpMZWwrCQhP3n-90" target="lM22bVPYpMZWwrCQhP3n-84">
          <mxGeometry relative="1" as="geometry" />
        </mxCell>
        <mxCell id="lM22bVPYpMZWwrCQhP3n-90" value="rid (FK)" style="ellipse;whiteSpace=wrap;html=1;align=center;" vertex="1" parent="1">
          <mxGeometry x="-209.68999999999997" y="3580" width="100" height="40" as="geometry" />
        </mxCell>
        <mxCell id="lM22bVPYpMZWwrCQhP3n-91" value="customer_id (FK)" style="ellipse;whiteSpace=wrap;html=1;align=center;" vertex="1" parent="1">
          <mxGeometry x="-202.72" y="3470" width="100" height="40" as="geometry" />
        </mxCell>
        <mxCell id="lM22bVPYpMZWwrCQhP3n-100" style="edgeStyle=orthogonalEdgeStyle;rounded=0;orthogonalLoop=1;jettySize=auto;html=1;exitX=1;exitY=0.5;exitDx=0;exitDy=0;entryX=0;entryY=0.25;entryDx=0;entryDy=0;" edge="1" parent="1" source="lM22bVPYpMZWwrCQhP3n-92" target="lM22bVPYpMZWwrCQhP3n-84">
          <mxGeometry relative="1" as="geometry" />
        </mxCell>
        <mxCell id="lM22bVPYpMZWwrCQhP3n-92" value="quantity" style="ellipse;whiteSpace=wrap;html=1;align=center;" vertex="1" parent="1">
          <mxGeometry x="-244.08999999999995" y="3530" width="100" height="40" as="geometry" />
        </mxCell>
        <mxCell id="lM22bVPYpMZWwrCQhP3n-93" style="edgeStyle=orthogonalEdgeStyle;rounded=0;orthogonalLoop=1;jettySize=auto;html=1;exitX=1;exitY=1;exitDx=0;exitDy=0;entryX=0.126;entryY=0.049;entryDx=0;entryDy=0;entryPerimeter=0;" edge="1" parent="1" source="lM22bVPYpMZWwrCQhP3n-91" target="lM22bVPYpMZWwrCQhP3n-84">
          <mxGeometry relative="1" as="geometry" />
        </mxCell>
        <mxCell id="lM22bVPYpMZWwrCQhP3n-96" style="edgeStyle=orthogonalEdgeStyle;rounded=0;orthogonalLoop=1;jettySize=auto;html=1;exitX=0;exitY=1;exitDx=0;exitDy=0;entryX=0.911;entryY=-0.136;entryDx=0;entryDy=0;entryPerimeter=0;" edge="1" parent="1" source="lM22bVPYpMZWwrCQhP3n-87" target="lM22bVPYpMZWwrCQhP3n-84">
          <mxGeometry relative="1" as="geometry" />
        </mxCell>
        <mxCell id="lM22bVPYpMZWwrCQhP3n-102" value="Order" style="whiteSpace=wrap;html=1;align=center;" vertex="1" parent="1">
          <mxGeometry x="856.95" y="3270" width="100" height="40" as="geometry" />
        </mxCell>
        <mxCell id="lM22bVPYpMZWwrCQhP3n-111" style="edgeStyle=orthogonalEdgeStyle;rounded=0;orthogonalLoop=1;jettySize=auto;html=1;exitX=0;exitY=1;exitDx=0;exitDy=0;entryX=0.5;entryY=0;entryDx=0;entryDy=0;" edge="1" parent="1" source="lM22bVPYpMZWwrCQhP3n-103" target="lM22bVPYpMZWwrCQhP3n-102">
          <mxGeometry relative="1" as="geometry" />
        </mxCell>
        <mxCell id="lM22bVPYpMZWwrCQhP3n-103" value="order_id" style="ellipse;whiteSpace=wrap;html=1;align=center;" vertex="1" parent="1">
          <mxGeometry x="895.1" y="3190" width="100" height="40" as="geometry" />
        </mxCell>
        <mxCell id="lM22bVPYpMZWwrCQhP3n-112" style="edgeStyle=orthogonalEdgeStyle;rounded=0;orthogonalLoop=1;jettySize=auto;html=1;exitX=0;exitY=0.5;exitDx=0;exitDy=0;entryX=1;entryY=0;entryDx=0;entryDy=0;" edge="1" parent="1" source="lM22bVPYpMZWwrCQhP3n-104" target="lM22bVPYpMZWwrCQhP3n-102">
          <mxGeometry relative="1" as="geometry">
            <Array as="points">
              <mxPoint x="998.35" y="3240" />
              <mxPoint x="980.35" y="3240" />
              <mxPoint x="980.35" y="3270" />
            </Array>
          </mxGeometry>
        </mxCell>
        <mxCell id="lM22bVPYpMZWwrCQhP3n-104" value="status" style="ellipse;whiteSpace=wrap;html=1;align=center;" vertex="1" parent="1">
          <mxGeometry x="998.75" y="3200" width="100" height="40" as="geometry" />
        </mxCell>
        <mxCell id="lM22bVPYpMZWwrCQhP3n-113" style="edgeStyle=orthogonalEdgeStyle;rounded=0;orthogonalLoop=1;jettySize=auto;html=1;exitX=0;exitY=0.5;exitDx=0;exitDy=0;entryX=1;entryY=0.25;entryDx=0;entryDy=0;" edge="1" parent="1" source="lM22bVPYpMZWwrCQhP3n-105" target="lM22bVPYpMZWwrCQhP3n-102">
          <mxGeometry relative="1" as="geometry" />
        </mxCell>
        <mxCell id="lM22bVPYpMZWwrCQhP3n-105" value="Total amount" style="ellipse;whiteSpace=wrap;html=1;align=center;" vertex="1" parent="1">
          <mxGeometry x="988.75" y="3260" width="100" height="40" as="geometry" />
        </mxCell>
        <mxCell id="lM22bVPYpMZWwrCQhP3n-114" style="edgeStyle=orthogonalEdgeStyle;rounded=0;orthogonalLoop=1;jettySize=auto;html=1;exitX=0;exitY=0;exitDx=0;exitDy=0;entryX=1;entryY=0.5;entryDx=0;entryDy=0;" edge="1" parent="1" source="lM22bVPYpMZWwrCQhP3n-106" target="lM22bVPYpMZWwrCQhP3n-102">
          <mxGeometry relative="1" as="geometry" />
        </mxCell>
        <mxCell id="lM22bVPYpMZWwrCQhP3n-106" value="order_date" style="ellipse;whiteSpace=wrap;html=1;align=center;" vertex="1" parent="1">
          <mxGeometry x="983.1500000000001" y="3310" width="100" height="40" as="geometry" />
        </mxCell>
        <mxCell id="lM22bVPYpMZWwrCQhP3n-117" style="edgeStyle=orthogonalEdgeStyle;rounded=0;orthogonalLoop=1;jettySize=auto;html=1;exitX=1;exitY=0.5;exitDx=0;exitDy=0;entryX=0;entryY=0.5;entryDx=0;entryDy=0;" edge="1" parent="1" source="lM22bVPYpMZWwrCQhP3n-107" target="lM22bVPYpMZWwrCQhP3n-102">
          <mxGeometry relative="1" as="geometry" />
        </mxCell>
        <mxCell id="lM22bVPYpMZWwrCQhP3n-107" value="return date" style="ellipse;whiteSpace=wrap;html=1;align=center;" vertex="1" parent="1">
          <mxGeometry x="709.35" y="3300" width="100" height="40" as="geometry" />
        </mxCell>
        <mxCell id="lM22bVPYpMZWwrCQhP3n-115" style="edgeStyle=orthogonalEdgeStyle;rounded=0;orthogonalLoop=1;jettySize=auto;html=1;exitX=1;exitY=0.5;exitDx=0;exitDy=0;entryX=0;entryY=0;entryDx=0;entryDy=0;" edge="1" parent="1" source="lM22bVPYpMZWwrCQhP3n-108" target="lM22bVPYpMZWwrCQhP3n-102">
          <mxGeometry relative="1" as="geometry" />
        </mxCell>
        <mxCell id="lM22bVPYpMZWwrCQhP3n-108" value="product id (FK)" style="ellipse;whiteSpace=wrap;html=1;align=center;" vertex="1" parent="1">
          <mxGeometry x="722.1" y="3250" width="100" height="40" as="geometry" />
        </mxCell>
        <mxCell id="lM22bVPYpMZWwrCQhP3n-116" style="edgeStyle=orthogonalEdgeStyle;rounded=0;orthogonalLoop=1;jettySize=auto;html=1;exitX=1;exitY=1;exitDx=0;exitDy=0;entryX=0.25;entryY=0;entryDx=0;entryDy=0;" edge="1" parent="1" source="lM22bVPYpMZWwrCQhP3n-110" target="lM22bVPYpMZWwrCQhP3n-102">
          <mxGeometry relative="1" as="geometry" />
        </mxCell>
        <mxCell id="lM22bVPYpMZWwrCQhP3n-110" value="rid (FK)" style="ellipse;whiteSpace=wrap;html=1;align=center;" vertex="1" parent="1">
          <mxGeometry x="783.15" y="3200" width="100" height="40" as="geometry" />
        </mxCell>
        <mxCell id="lM22bVPYpMZWwrCQhP3n-118" value="Sell with us" style="whiteSpace=wrap;html=1;align=center;" vertex="1" parent="1">
          <mxGeometry x="-96.68" y="3900" width="100" height="40" as="geometry" />
        </mxCell>
        <mxCell id="lM22bVPYpMZWwrCQhP3n-124" style="edgeStyle=orthogonalEdgeStyle;rounded=0;orthogonalLoop=1;jettySize=auto;html=1;exitX=0;exitY=1;exitDx=0;exitDy=0;entryX=0.5;entryY=0;entryDx=0;entryDy=0;" edge="1" parent="1" source="lM22bVPYpMZWwrCQhP3n-119" target="lM22bVPYpMZWwrCQhP3n-118">
          <mxGeometry relative="1" as="geometry" />
        </mxCell>
        <mxCell id="lM22bVPYpMZWwrCQhP3n-119" value="sell_id" style="ellipse;whiteSpace=wrap;html=1;align=center;" vertex="1" parent="1">
          <mxGeometry x="-53.03" y="3830" width="100" height="40" as="geometry" />
        </mxCell>
        <mxCell id="lM22bVPYpMZWwrCQhP3n-127" style="edgeStyle=orthogonalEdgeStyle;rounded=0;orthogonalLoop=1;jettySize=auto;html=1;exitX=0;exitY=0.5;exitDx=0;exitDy=0;entryX=1;entryY=0.5;entryDx=0;entryDy=0;" edge="1" parent="1" source="lM22bVPYpMZWwrCQhP3n-120" target="lM22bVPYpMZWwrCQhP3n-118">
          <mxGeometry relative="1" as="geometry" />
        </mxCell>
        <mxCell id="lM22bVPYpMZWwrCQhP3n-120" value="customer_id (FK)" style="ellipse;whiteSpace=wrap;html=1;align=center;" vertex="1" parent="1">
          <mxGeometry x="36.97" y="3900" width="100" height="40" as="geometry" />
        </mxCell>
        <mxCell id="lM22bVPYpMZWwrCQhP3n-122" value="product_id (FK)" style="ellipse;whiteSpace=wrap;html=1;align=center;" vertex="1" parent="1">
          <mxGeometry x="-183.03" y="3840" width="100" height="40" as="geometry" />
        </mxCell>
        <mxCell id="lM22bVPYpMZWwrCQhP3n-126" style="edgeStyle=orthogonalEdgeStyle;rounded=0;orthogonalLoop=1;jettySize=auto;html=1;exitX=1;exitY=0.5;exitDx=0;exitDy=0;entryX=0;entryY=0.5;entryDx=0;entryDy=0;" edge="1" parent="1" source="lM22bVPYpMZWwrCQhP3n-123" target="lM22bVPYpMZWwrCQhP3n-118">
          <mxGeometry relative="1" as="geometry" />
        </mxCell>
        <mxCell id="lM22bVPYpMZWwrCQhP3n-123" value="status" style="ellipse;whiteSpace=wrap;html=1;align=center;" vertex="1" parent="1">
          <mxGeometry x="-222.20000000000002" y="3900" width="100" height="40" as="geometry" />
        </mxCell>
        <mxCell id="lM22bVPYpMZWwrCQhP3n-125" style="edgeStyle=orthogonalEdgeStyle;rounded=0;orthogonalLoop=1;jettySize=auto;html=1;exitX=1;exitY=0.5;exitDx=0;exitDy=0;entryX=0.169;entryY=0.023;entryDx=0;entryDy=0;entryPerimeter=0;" edge="1" parent="1" source="lM22bVPYpMZWwrCQhP3n-122" target="lM22bVPYpMZWwrCQhP3n-118">
          <mxGeometry relative="1" as="geometry" />
        </mxCell>
        <mxCell id="lM22bVPYpMZWwrCQhP3n-128" value="voucher" style="whiteSpace=wrap;html=1;align=center;" vertex="1" parent="1">
          <mxGeometry x="-482.64" y="3970" width="100" height="40" as="geometry" />
        </mxCell>
        <mxCell id="lM22bVPYpMZWwrCQhP3n-138" style="edgeStyle=orthogonalEdgeStyle;rounded=0;orthogonalLoop=1;jettySize=auto;html=1;exitX=0.5;exitY=0;exitDx=0;exitDy=0;entryX=0.5;entryY=1;entryDx=0;entryDy=0;" edge="1" parent="1" source="lM22bVPYpMZWwrCQhP3n-129" target="lM22bVPYpMZWwrCQhP3n-128">
          <mxGeometry relative="1" as="geometry" />
        </mxCell>
        <mxCell id="lM22bVPYpMZWwrCQhP3n-129" value="id" style="ellipse;whiteSpace=wrap;html=1;align=center;" vertex="1" parent="1">
          <mxGeometry x="-482.64" y="4090" width="100" height="40" as="geometry" />
        </mxCell>
        <mxCell id="lM22bVPYpMZWwrCQhP3n-130" value="discount" style="ellipse;whiteSpace=wrap;html=1;align=center;" vertex="1" parent="1">
          <mxGeometry x="-590.1600000000001" y="4080" width="100" height="40" as="geometry" />
        </mxCell>
        <mxCell id="lM22bVPYpMZWwrCQhP3n-135" style="edgeStyle=orthogonalEdgeStyle;rounded=0;orthogonalLoop=1;jettySize=auto;html=1;exitX=1;exitY=0.5;exitDx=0;exitDy=0;entryX=0;entryY=0.5;entryDx=0;entryDy=0;" edge="1" parent="1" source="lM22bVPYpMZWwrCQhP3n-131" target="lM22bVPYpMZWwrCQhP3n-128">
          <mxGeometry relative="1" as="geometry" />
        </mxCell>
        <mxCell id="lM22bVPYpMZWwrCQhP3n-131" value="price" style="ellipse;whiteSpace=wrap;html=1;align=center;" vertex="1" parent="1">
          <mxGeometry x="-605.99" y="3970" width="100" height="40" as="geometry" />
        </mxCell>
        <mxCell id="lM22bVPYpMZWwrCQhP3n-132" value="description" style="ellipse;whiteSpace=wrap;html=1;align=center;" vertex="1" parent="1">
          <mxGeometry x="-607.7600000000001" y="4030" width="100" height="40" as="geometry" />
        </mxCell>
        <mxCell id="lM22bVPYpMZWwrCQhP3n-140" style="edgeStyle=orthogonalEdgeStyle;rounded=0;orthogonalLoop=1;jettySize=auto;html=1;exitX=0;exitY=0.5;exitDx=0;exitDy=0;entryX=1;entryY=1;entryDx=0;entryDy=0;" edge="1" parent="1" source="lM22bVPYpMZWwrCQhP3n-133" target="lM22bVPYpMZWwrCQhP3n-128">
          <mxGeometry relative="1" as="geometry" />
        </mxCell>
        <mxCell id="lM22bVPYpMZWwrCQhP3n-133" value="expire date" style="ellipse;whiteSpace=wrap;html=1;align=center;" vertex="1" parent="1">
          <mxGeometry x="-359.31" y="4000" width="100" height="40" as="geometry" />
        </mxCell>
        <mxCell id="lM22bVPYpMZWwrCQhP3n-134" value="code" style="ellipse;whiteSpace=wrap;html=1;align=center;" vertex="1" parent="1">
          <mxGeometry x="-394.43" y="4060" width="100" height="40" as="geometry" />
        </mxCell>
        <mxCell id="lM22bVPYpMZWwrCQhP3n-136" style="edgeStyle=orthogonalEdgeStyle;rounded=0;orthogonalLoop=1;jettySize=auto;html=1;exitX=1;exitY=0.5;exitDx=0;exitDy=0;entryX=0.116;entryY=0.997;entryDx=0;entryDy=0;entryPerimeter=0;" edge="1" parent="1" source="lM22bVPYpMZWwrCQhP3n-132" target="lM22bVPYpMZWwrCQhP3n-128">
          <mxGeometry relative="1" as="geometry" />
        </mxCell>
        <mxCell id="lM22bVPYpMZWwrCQhP3n-137" style="edgeStyle=orthogonalEdgeStyle;rounded=0;orthogonalLoop=1;jettySize=auto;html=1;exitX=1;exitY=0;exitDx=0;exitDy=0;entryX=0.371;entryY=0.982;entryDx=0;entryDy=0;entryPerimeter=0;" edge="1" parent="1" source="lM22bVPYpMZWwrCQhP3n-130" target="lM22bVPYpMZWwrCQhP3n-128">
          <mxGeometry relative="1" as="geometry" />
        </mxCell>
        <mxCell id="lM22bVPYpMZWwrCQhP3n-139" style="edgeStyle=orthogonalEdgeStyle;rounded=0;orthogonalLoop=1;jettySize=auto;html=1;exitX=0;exitY=0;exitDx=0;exitDy=0;entryX=0.673;entryY=1.069;entryDx=0;entryDy=0;entryPerimeter=0;" edge="1" parent="1" source="lM22bVPYpMZWwrCQhP3n-134" target="lM22bVPYpMZWwrCQhP3n-128">
          <mxGeometry relative="1" as="geometry" />
        </mxCell>
        <mxCell id="lM22bVPYpMZWwrCQhP3n-141" value="redeem Voucher" style="whiteSpace=wrap;html=1;align=center;" vertex="1" parent="1">
          <mxGeometry x="-866.8" y="3920" width="100" height="40" as="geometry" />
        </mxCell>
        <mxCell id="lM22bVPYpMZWwrCQhP3n-142" value="customer_id (FK)" style="ellipse;whiteSpace=wrap;html=1;align=center;" vertex="1" parent="1">
          <mxGeometry x="-774.4" y="4000" width="100" height="40" as="geometry" />
        </mxCell>
        <mxCell id="lM22bVPYpMZWwrCQhP3n-148" style="edgeStyle=orthogonalEdgeStyle;rounded=0;orthogonalLoop=1;jettySize=auto;html=1;exitX=1;exitY=0;exitDx=0;exitDy=0;entryX=0;entryY=1;entryDx=0;entryDy=0;" edge="1" parent="1" source="lM22bVPYpMZWwrCQhP3n-143" target="lM22bVPYpMZWwrCQhP3n-141">
          <mxGeometry relative="1" as="geometry" />
        </mxCell>
        <mxCell id="lM22bVPYpMZWwrCQhP3n-143" value="voucher (FK)" style="ellipse;whiteSpace=wrap;html=1;align=center;" vertex="1" parent="1">
          <mxGeometry x="-986.8" y="3980" width="100" height="40" as="geometry" />
        </mxCell>
        <mxCell id="lM22bVPYpMZWwrCQhP3n-147" style="edgeStyle=orthogonalEdgeStyle;rounded=0;orthogonalLoop=1;jettySize=auto;html=1;exitX=1;exitY=0.5;exitDx=0;exitDy=0;entryX=0;entryY=0.5;entryDx=0;entryDy=0;" edge="1" parent="1" source="lM22bVPYpMZWwrCQhP3n-144" target="lM22bVPYpMZWwrCQhP3n-141">
          <mxGeometry relative="1" as="geometry" />
        </mxCell>
        <mxCell id="lM22bVPYpMZWwrCQhP3n-144" value="redeem date" style="ellipse;whiteSpace=wrap;html=1;align=center;" vertex="1" parent="1">
          <mxGeometry x="-1006.8" y="3930" width="100" height="40" as="geometry" />
        </mxCell>
        <mxCell id="lM22bVPYpMZWwrCQhP3n-149" style="edgeStyle=orthogonalEdgeStyle;rounded=0;orthogonalLoop=1;jettySize=auto;html=1;exitX=0.5;exitY=0;exitDx=0;exitDy=0;entryX=0.25;entryY=1;entryDx=0;entryDy=0;" edge="1" parent="1" source="lM22bVPYpMZWwrCQhP3n-145" target="lM22bVPYpMZWwrCQhP3n-141">
          <mxGeometry relative="1" as="geometry">
            <Array as="points">
              <mxPoint x="-866.8" y="4030" />
              <mxPoint x="-866.8" y="3995" />
              <mxPoint x="-841.8" y="3995" />
            </Array>
          </mxGeometry>
        </mxCell>
        <mxCell id="lM22bVPYpMZWwrCQhP3n-145" value="status" style="ellipse;whiteSpace=wrap;html=1;align=center;" vertex="1" parent="1">
          <mxGeometry x="-940.55" y="4030" width="100" height="40" as="geometry" />
        </mxCell>
        <mxCell id="lM22bVPYpMZWwrCQhP3n-150" style="edgeStyle=orthogonalEdgeStyle;rounded=0;orthogonalLoop=1;jettySize=auto;html=1;exitX=0;exitY=0;exitDx=0;exitDy=0;entryX=0.5;entryY=1;entryDx=0;entryDy=0;" edge="1" parent="1" source="lM22bVPYpMZWwrCQhP3n-146" target="lM22bVPYpMZWwrCQhP3n-141">
          <mxGeometry relative="1" as="geometry" />
        </mxCell>
        <mxCell id="lM22bVPYpMZWwrCQhP3n-146" value="id" style="ellipse;whiteSpace=wrap;html=1;align=center;" vertex="1" parent="1">
          <mxGeometry x="-830.98" y="4040" width="100" height="40" as="geometry" />
        </mxCell>
        <mxCell id="lM22bVPYpMZWwrCQhP3n-151" style="edgeStyle=orthogonalEdgeStyle;rounded=0;orthogonalLoop=1;jettySize=auto;html=1;exitX=0;exitY=0.5;exitDx=0;exitDy=0;entryX=0.813;entryY=1.04;entryDx=0;entryDy=0;entryPerimeter=0;" edge="1" parent="1" source="lM22bVPYpMZWwrCQhP3n-142" target="lM22bVPYpMZWwrCQhP3n-141">
          <mxGeometry relative="1" as="geometry" />
        </mxCell>
        <mxCell id="lM22bVPYpMZWwrCQhP3n-158" style="edgeStyle=orthogonalEdgeStyle;rounded=0;orthogonalLoop=1;jettySize=auto;html=1;exitX=0.5;exitY=1;exitDx=0;exitDy=0;entryX=0.25;entryY=0;entryDx=0;entryDy=0;" edge="1" parent="1" source="lM22bVPYpMZWwrCQhP3n-152" target="lM22bVPYpMZWwrCQhP3n-153">
          <mxGeometry relative="1" as="geometry" />
        </mxCell>
        <mxCell id="lM22bVPYpMZWwrCQhP3n-152" value="SID" style="ellipse;whiteSpace=wrap;html=1;align=center;" vertex="1" parent="1">
          <mxGeometry x="-1240" y="3350" width="100" height="40" as="geometry" />
        </mxCell>
        <mxCell id="lM22bVPYpMZWwrCQhP3n-153" value="spin to win" style="whiteSpace=wrap;html=1;align=center;" vertex="1" parent="1">
          <mxGeometry x="-1180" y="3430" width="100" height="40" as="geometry" />
        </mxCell>
        <mxCell id="lM22bVPYpMZWwrCQhP3n-162" style="edgeStyle=orthogonalEdgeStyle;rounded=0;orthogonalLoop=1;jettySize=auto;html=1;exitX=0.5;exitY=0;exitDx=0;exitDy=0;entryX=0.5;entryY=1;entryDx=0;entryDy=0;" edge="1" parent="1" source="lM22bVPYpMZWwrCQhP3n-154" target="lM22bVPYpMZWwrCQhP3n-153">
          <mxGeometry relative="1" as="geometry" />
        </mxCell>
        <mxCell id="lM22bVPYpMZWwrCQhP3n-154" value="customer_id&lt;div&gt;(FK)&lt;/div&gt;" style="ellipse;whiteSpace=wrap;html=1;align=center;" vertex="1" parent="1">
          <mxGeometry x="-1180" y="3500" width="100" height="40" as="geometry" />
        </mxCell>
        <mxCell id="lM22bVPYpMZWwrCQhP3n-161" style="edgeStyle=orthogonalEdgeStyle;rounded=0;orthogonalLoop=1;jettySize=auto;html=1;exitX=0.5;exitY=0;exitDx=0;exitDy=0;entryX=0.25;entryY=1;entryDx=0;entryDy=0;" edge="1" parent="1" source="lM22bVPYpMZWwrCQhP3n-155" target="lM22bVPYpMZWwrCQhP3n-153">
          <mxGeometry relative="1" as="geometry">
            <Array as="points">
              <mxPoint x="-1200" y="3520" />
              <mxPoint x="-1200" y="3495" />
              <mxPoint x="-1155" y="3495" />
            </Array>
          </mxGeometry>
        </mxCell>
        <mxCell id="lM22bVPYpMZWwrCQhP3n-155" value="date" style="ellipse;whiteSpace=wrap;html=1;align=center;" vertex="1" parent="1">
          <mxGeometry x="-1280" y="3520" width="100" height="40" as="geometry" />
        </mxCell>
        <mxCell id="lM22bVPYpMZWwrCQhP3n-160" style="edgeStyle=orthogonalEdgeStyle;rounded=0;orthogonalLoop=1;jettySize=auto;html=1;exitX=1;exitY=0.5;exitDx=0;exitDy=0;entryX=0;entryY=0.75;entryDx=0;entryDy=0;" edge="1" parent="1" source="lM22bVPYpMZWwrCQhP3n-156" target="lM22bVPYpMZWwrCQhP3n-153">
          <mxGeometry relative="1" as="geometry" />
        </mxCell>
        <mxCell id="lM22bVPYpMZWwrCQhP3n-156" value="count" style="ellipse;whiteSpace=wrap;html=1;align=center;" vertex="1" parent="1">
          <mxGeometry x="-1300" y="3460" width="100" height="40" as="geometry" />
        </mxCell>
        <mxCell id="lM22bVPYpMZWwrCQhP3n-159" style="edgeStyle=orthogonalEdgeStyle;rounded=0;orthogonalLoop=1;jettySize=auto;html=1;exitX=1;exitY=0.5;exitDx=0;exitDy=0;entryX=0;entryY=0.5;entryDx=0;entryDy=0;" edge="1" parent="1" source="lM22bVPYpMZWwrCQhP3n-157" target="lM22bVPYpMZWwrCQhP3n-153">
          <mxGeometry relative="1" as="geometry" />
        </mxCell>
        <mxCell id="lM22bVPYpMZWwrCQhP3n-157" value="reward" style="ellipse;whiteSpace=wrap;html=1;align=center;" vertex="1" parent="1">
          <mxGeometry x="-1300" y="3400" width="100" height="40" as="geometry" />
        </mxCell>
        <mxCell id="lM22bVPYpMZWwrCQhP3n-163" value="dp order" style="whiteSpace=wrap;html=1;align=center;" vertex="1" parent="1">
          <mxGeometry x="1053.4" y="2980" width="100" height="40" as="geometry" />
        </mxCell>
        <mxCell id="lM22bVPYpMZWwrCQhP3n-294" style="edgeStyle=orthogonalEdgeStyle;rounded=0;orthogonalLoop=1;jettySize=auto;html=1;exitX=0.5;exitY=1;exitDx=0;exitDy=0;entryX=0.5;entryY=0;entryDx=0;entryDy=0;" edge="1" parent="1" source="lM22bVPYpMZWwrCQhP3n-164" target="lM22bVPYpMZWwrCQhP3n-163">
          <mxGeometry relative="1" as="geometry" />
        </mxCell>
        <mxCell id="lM22bVPYpMZWwrCQhP3n-164" value="order (FK)" style="ellipse;whiteSpace=wrap;html=1;align=center;" vertex="1" parent="1">
          <mxGeometry x="1060" y="2900" width="100" height="40" as="geometry" />
        </mxCell>
        <mxCell id="lM22bVPYpMZWwrCQhP3n-295" style="edgeStyle=orthogonalEdgeStyle;rounded=0;orthogonalLoop=1;jettySize=auto;html=1;exitX=0;exitY=0.5;exitDx=0;exitDy=0;entryX=0.75;entryY=0;entryDx=0;entryDy=0;" edge="1" parent="1" source="lM22bVPYpMZWwrCQhP3n-165" target="lM22bVPYpMZWwrCQhP3n-163">
          <mxGeometry relative="1" as="geometry" />
        </mxCell>
        <mxCell id="lM22bVPYpMZWwrCQhP3n-165" value="DOid" style="ellipse;whiteSpace=wrap;html=1;align=center;" vertex="1" parent="1">
          <mxGeometry x="1171.1" y="2930" width="100" height="40" as="geometry" />
        </mxCell>
        <mxCell id="lM22bVPYpMZWwrCQhP3n-296" style="edgeStyle=orthogonalEdgeStyle;rounded=0;orthogonalLoop=1;jettySize=auto;html=1;exitX=0;exitY=0.5;exitDx=0;exitDy=0;entryX=1;entryY=0.25;entryDx=0;entryDy=0;" edge="1" parent="1" source="lM22bVPYpMZWwrCQhP3n-166" target="lM22bVPYpMZWwrCQhP3n-163">
          <mxGeometry relative="1" as="geometry" />
        </mxCell>
        <mxCell id="lM22bVPYpMZWwrCQhP3n-166" value="assigned date" style="ellipse;whiteSpace=wrap;html=1;align=center;" vertex="1" parent="1">
          <mxGeometry x="1185.6" y="3000" width="100" height="40" as="geometry" />
        </mxCell>
        <mxCell id="lM22bVPYpMZWwrCQhP3n-297" style="edgeStyle=orthogonalEdgeStyle;rounded=0;orthogonalLoop=1;jettySize=auto;html=1;exitX=0.5;exitY=0;exitDx=0;exitDy=0;entryX=0.75;entryY=1;entryDx=0;entryDy=0;" edge="1" parent="1" source="lM22bVPYpMZWwrCQhP3n-167" target="lM22bVPYpMZWwrCQhP3n-163">
          <mxGeometry relative="1" as="geometry" />
        </mxCell>
        <mxCell id="lM22bVPYpMZWwrCQhP3n-167" value="status" style="ellipse;whiteSpace=wrap;html=1;align=center;" vertex="1" parent="1">
          <mxGeometry x="1090.6" y="3050" width="100" height="40" as="geometry" />
        </mxCell>
        <mxCell id="lM22bVPYpMZWwrCQhP3n-168" value="category" style="whiteSpace=wrap;html=1;align=center;" vertex="1" parent="1">
          <mxGeometry x="351.13" y="3730" width="100" height="40" as="geometry" />
        </mxCell>
        <mxCell id="lM22bVPYpMZWwrCQhP3n-174" style="edgeStyle=orthogonalEdgeStyle;rounded=0;orthogonalLoop=1;jettySize=auto;html=1;exitX=1;exitY=0;exitDx=0;exitDy=0;entryX=0;entryY=0.75;entryDx=0;entryDy=0;" edge="1" parent="1" source="lM22bVPYpMZWwrCQhP3n-169" target="lM22bVPYpMZWwrCQhP3n-168">
          <mxGeometry relative="1" as="geometry" />
        </mxCell>
        <mxCell id="lM22bVPYpMZWwrCQhP3n-169" value="Main category" style="ellipse;whiteSpace=wrap;html=1;align=center;" vertex="1" parent="1">
          <mxGeometry x="238.05" y="3770" width="100" height="40" as="geometry" />
        </mxCell>
        <mxCell id="lM22bVPYpMZWwrCQhP3n-175" style="edgeStyle=orthogonalEdgeStyle;rounded=0;orthogonalLoop=1;jettySize=auto;html=1;exitX=0;exitY=0;exitDx=0;exitDy=0;entryX=0.25;entryY=1;entryDx=0;entryDy=0;" edge="1" parent="1" source="lM22bVPYpMZWwrCQhP3n-170" target="lM22bVPYpMZWwrCQhP3n-168">
          <mxGeometry relative="1" as="geometry" />
        </mxCell>
        <mxCell id="lM22bVPYpMZWwrCQhP3n-170" value="sub category" style="ellipse;whiteSpace=wrap;html=1;align=center;" vertex="1" parent="1">
          <mxGeometry x="361.13" y="3810" width="100" height="40" as="geometry" />
        </mxCell>
        <mxCell id="lM22bVPYpMZWwrCQhP3n-176" style="edgeStyle=orthogonalEdgeStyle;rounded=0;orthogonalLoop=1;jettySize=auto;html=1;exitX=0;exitY=0.5;exitDx=0;exitDy=0;entryX=0.75;entryY=1;entryDx=0;entryDy=0;" edge="1" parent="1" source="lM22bVPYpMZWwrCQhP3n-173" target="lM22bVPYpMZWwrCQhP3n-168">
          <mxGeometry relative="1" as="geometry" />
        </mxCell>
        <mxCell id="lM22bVPYpMZWwrCQhP3n-173" value="category_id" style="ellipse;whiteSpace=wrap;html=1;align=center;" vertex="1" parent="1">
          <mxGeometry x="487.25" y="3770" width="100" height="40" as="geometry" />
        </mxCell>
        <mxCell id="lM22bVPYpMZWwrCQhP3n-177" value="Rcategory" style="whiteSpace=wrap;html=1;align=center;" vertex="1" parent="1">
          <mxGeometry x="974.9799999999998" y="3430" width="100" height="40" as="geometry" />
        </mxCell>
        <mxCell id="lM22bVPYpMZWwrCQhP3n-178" style="edgeStyle=orthogonalEdgeStyle;rounded=0;orthogonalLoop=1;jettySize=auto;html=1;exitX=1;exitY=0;exitDx=0;exitDy=0;entryX=0;entryY=0.75;entryDx=0;entryDy=0;" edge="1" parent="1" source="lM22bVPYpMZWwrCQhP3n-179" target="lM22bVPYpMZWwrCQhP3n-177">
          <mxGeometry relative="1" as="geometry" />
        </mxCell>
        <mxCell id="lM22bVPYpMZWwrCQhP3n-179" value="RMain category" style="ellipse;whiteSpace=wrap;html=1;align=center;" vertex="1" parent="1">
          <mxGeometry x="861.8999999999999" y="3470" width="100" height="40" as="geometry" />
        </mxCell>
        <mxCell id="lM22bVPYpMZWwrCQhP3n-180" style="edgeStyle=orthogonalEdgeStyle;rounded=0;orthogonalLoop=1;jettySize=auto;html=1;exitX=0;exitY=0;exitDx=0;exitDy=0;entryX=0.25;entryY=1;entryDx=0;entryDy=0;" edge="1" parent="1" source="lM22bVPYpMZWwrCQhP3n-181" target="lM22bVPYpMZWwrCQhP3n-177">
          <mxGeometry relative="1" as="geometry" />
        </mxCell>
        <mxCell id="lM22bVPYpMZWwrCQhP3n-181" value="Rsub category" style="ellipse;whiteSpace=wrap;html=1;align=center;" vertex="1" parent="1">
          <mxGeometry x="984.9799999999998" y="3510" width="100" height="40" as="geometry" />
        </mxCell>
        <mxCell id="lM22bVPYpMZWwrCQhP3n-182" style="edgeStyle=orthogonalEdgeStyle;rounded=0;orthogonalLoop=1;jettySize=auto;html=1;exitX=0;exitY=0.5;exitDx=0;exitDy=0;entryX=0.75;entryY=1;entryDx=0;entryDy=0;" edge="1" parent="1" source="lM22bVPYpMZWwrCQhP3n-183" target="lM22bVPYpMZWwrCQhP3n-177">
          <mxGeometry relative="1" as="geometry" />
        </mxCell>
        <mxCell id="lM22bVPYpMZWwrCQhP3n-183" value="Rid" style="ellipse;whiteSpace=wrap;html=1;align=center;" vertex="1" parent="1">
          <mxGeometry x="1111.1000000000001" y="3470" width="100" height="40" as="geometry" />
        </mxCell>
        <mxCell id="lM22bVPYpMZWwrCQhP3n-184" value="Product" style="whiteSpace=wrap;html=1;align=center;" vertex="1" parent="1">
          <mxGeometry x="-589.2700000000001" y="3480" width="100" height="40" as="geometry" />
        </mxCell>
        <mxCell id="lM22bVPYpMZWwrCQhP3n-185" value="name" style="ellipse;whiteSpace=wrap;html=1;align=center;" vertex="1" parent="1">
          <mxGeometry x="-577.9599999999999" y="3590" width="100" height="40" as="geometry" />
        </mxCell>
        <mxCell id="lM22bVPYpMZWwrCQhP3n-186" value="description" style="ellipse;whiteSpace=wrap;html=1;align=center;" vertex="1" parent="1">
          <mxGeometry x="-452.4100000000001" y="3450" width="100" height="40" as="geometry" />
        </mxCell>
        <mxCell id="lM22bVPYpMZWwrCQhP3n-206" style="edgeStyle=orthogonalEdgeStyle;rounded=0;orthogonalLoop=1;jettySize=auto;html=1;exitX=0;exitY=0;exitDx=0;exitDy=0;entryX=1;entryY=0.25;entryDx=0;entryDy=0;" edge="1" parent="1" source="lM22bVPYpMZWwrCQhP3n-188" target="lM22bVPYpMZWwrCQhP3n-184">
          <mxGeometry relative="1" as="geometry" />
        </mxCell>
        <mxCell id="lM22bVPYpMZWwrCQhP3n-188" value="price" style="ellipse;whiteSpace=wrap;html=1;align=center;" vertex="1" parent="1">
          <mxGeometry x="-449.46000000000004" y="3510" width="100" height="40" as="geometry" />
        </mxCell>
        <mxCell id="lM22bVPYpMZWwrCQhP3n-203" style="edgeStyle=orthogonalEdgeStyle;rounded=0;orthogonalLoop=1;jettySize=auto;html=1;exitX=0.5;exitY=0;exitDx=0;exitDy=0;entryX=0.5;entryY=1;entryDx=0;entryDy=0;" edge="1" parent="1" source="lM22bVPYpMZWwrCQhP3n-189" target="lM22bVPYpMZWwrCQhP3n-184">
          <mxGeometry relative="1" as="geometry">
            <Array as="points">
              <mxPoint x="-472.4100000000001" y="3660" />
              <mxPoint x="-472.4100000000001" y="3580" />
              <mxPoint x="-512.41" y="3580" />
              <mxPoint x="-512.41" y="3540" />
              <mxPoint x="-539.41" y="3540" />
            </Array>
          </mxGeometry>
        </mxCell>
        <mxCell id="lM22bVPYpMZWwrCQhP3n-189" value="rental price" style="ellipse;whiteSpace=wrap;html=1;align=center;" vertex="1" parent="1">
          <mxGeometry x="-597.75" y="3670" width="100" height="40" as="geometry" />
        </mxCell>
        <mxCell id="lM22bVPYpMZWwrCQhP3n-209" style="edgeStyle=orthogonalEdgeStyle;rounded=0;orthogonalLoop=1;jettySize=auto;html=1;exitX=1;exitY=0;exitDx=0;exitDy=0;entryX=0;entryY=0.5;entryDx=0;entryDy=0;" edge="1" parent="1" source="lM22bVPYpMZWwrCQhP3n-190" target="lM22bVPYpMZWwrCQhP3n-184">
          <mxGeometry relative="1" as="geometry" />
        </mxCell>
        <mxCell id="lM22bVPYpMZWwrCQhP3n-190" value="size" style="ellipse;whiteSpace=wrap;html=1;align=center;" vertex="1" parent="1">
          <mxGeometry x="-815.4200000000001" y="3600" width="100" height="40" as="geometry" />
        </mxCell>
        <mxCell id="lM22bVPYpMZWwrCQhP3n-210" style="edgeStyle=orthogonalEdgeStyle;rounded=0;orthogonalLoop=1;jettySize=auto;html=1;exitX=1;exitY=0.5;exitDx=0;exitDy=0;entryX=0;entryY=0.25;entryDx=0;entryDy=0;" edge="1" parent="1" source="lM22bVPYpMZWwrCQhP3n-191" target="lM22bVPYpMZWwrCQhP3n-184">
          <mxGeometry relative="1" as="geometry" />
        </mxCell>
        <mxCell id="lM22bVPYpMZWwrCQhP3n-191" value="color" style="ellipse;whiteSpace=wrap;html=1;align=center;" vertex="1" parent="1">
          <mxGeometry x="-765.8100000000001" y="3550" width="100" height="40" as="geometry" />
        </mxCell>
        <mxCell id="lM22bVPYpMZWwrCQhP3n-192" value="stoke" style="ellipse;whiteSpace=wrap;html=1;align=center;" vertex="1" parent="1">
          <mxGeometry x="-765.8100000000001" y="3500" width="100" height="40" as="geometry" />
        </mxCell>
        <mxCell id="lM22bVPYpMZWwrCQhP3n-212" style="edgeStyle=orthogonalEdgeStyle;rounded=0;orthogonalLoop=1;jettySize=auto;html=1;exitX=1;exitY=0.5;exitDx=0;exitDy=0;entryX=0.25;entryY=0;entryDx=0;entryDy=0;" edge="1" parent="1" source="lM22bVPYpMZWwrCQhP3n-193" target="lM22bVPYpMZWwrCQhP3n-184">
          <mxGeometry relative="1" as="geometry">
            <Array as="points">
              <mxPoint x="-652.41" y="3470" />
              <mxPoint x="-652.41" y="3450" />
              <mxPoint x="-564.41" y="3450" />
            </Array>
          </mxGeometry>
        </mxCell>
        <mxCell id="lM22bVPYpMZWwrCQhP3n-193" value="images" style="ellipse;whiteSpace=wrap;html=1;align=center;" vertex="1" parent="1">
          <mxGeometry x="-774.0100000000001" y="3450" width="100" height="40" as="geometry" />
        </mxCell>
        <mxCell id="lM22bVPYpMZWwrCQhP3n-200" style="edgeStyle=orthogonalEdgeStyle;rounded=0;orthogonalLoop=1;jettySize=auto;html=1;exitX=1;exitY=0;exitDx=0;exitDy=0;entryX=0;entryY=1;entryDx=0;entryDy=0;" edge="1" parent="1" source="lM22bVPYpMZWwrCQhP3n-194" target="lM22bVPYpMZWwrCQhP3n-184">
          <mxGeometry relative="1" as="geometry">
            <Array as="points">
              <mxPoint x="-636.41" y="3640" />
              <mxPoint x="-602.41" y="3640" />
              <mxPoint x="-602.41" y="3520" />
            </Array>
          </mxGeometry>
        </mxCell>
        <mxCell id="lM22bVPYpMZWwrCQhP3n-194" value="brand" style="ellipse;whiteSpace=wrap;html=1;align=center;" vertex="1" parent="1">
          <mxGeometry x="-790.0000000000001" y="3650" width="100" height="40" as="geometry" />
        </mxCell>
        <mxCell id="lM22bVPYpMZWwrCQhP3n-204" style="edgeStyle=orthogonalEdgeStyle;rounded=0;orthogonalLoop=1;jettySize=auto;html=1;exitX=0;exitY=0.5;exitDx=0;exitDy=0;entryX=0.75;entryY=0;entryDx=0;entryDy=0;" edge="1" parent="1" source="lM22bVPYpMZWwrCQhP3n-195" target="lM22bVPYpMZWwrCQhP3n-184">
          <mxGeometry relative="1" as="geometry" />
        </mxCell>
        <mxCell id="lM22bVPYpMZWwrCQhP3n-195" value="Seller_id (FK)" style="ellipse;whiteSpace=wrap;html=1;align=center;" vertex="1" parent="1">
          <mxGeometry x="-469.27" y="3400" width="100" height="40" as="geometry" />
        </mxCell>
        <mxCell id="lM22bVPYpMZWwrCQhP3n-208" style="edgeStyle=orthogonalEdgeStyle;rounded=0;orthogonalLoop=1;jettySize=auto;html=1;exitX=0;exitY=0.5;exitDx=0;exitDy=0;entryX=0.75;entryY=1;entryDx=0;entryDy=0;" edge="1" parent="1" source="lM22bVPYpMZWwrCQhP3n-196" target="lM22bVPYpMZWwrCQhP3n-184">
          <mxGeometry relative="1" as="geometry">
            <Array as="points">
              <mxPoint x="-462.4100000000001" y="3630" />
              <mxPoint x="-462.4100000000001" y="3540" />
              <mxPoint x="-502.40999999999997" y="3540" />
              <mxPoint x="-502.40999999999997" y="3520" />
            </Array>
          </mxGeometry>
        </mxCell>
        <mxCell id="lM22bVPYpMZWwrCQhP3n-196" value="Buy_Back_id (FK)" style="ellipse;whiteSpace=wrap;html=1;align=center;" vertex="1" parent="1">
          <mxGeometry x="-393.70000000000005" y="3610" width="100" height="40" as="geometry" />
        </mxCell>
        <mxCell id="lM22bVPYpMZWwrCQhP3n-197" value="discount&lt;div&gt;percentage&lt;/div&gt;" style="ellipse;whiteSpace=wrap;html=1;align=center;" vertex="1" parent="1">
          <mxGeometry x="-705.42" y="3690" width="100" height="40" as="geometry" />
        </mxCell>
        <mxCell id="lM22bVPYpMZWwrCQhP3n-207" style="edgeStyle=orthogonalEdgeStyle;rounded=0;orthogonalLoop=1;jettySize=auto;html=1;exitX=0;exitY=0.5;exitDx=0;exitDy=0;entryX=1;entryY=0.75;entryDx=0;entryDy=0;" edge="1" parent="1" target="lM22bVPYpMZWwrCQhP3n-184">
          <mxGeometry relative="1" as="geometry">
            <mxPoint x="-425.9100000000001" y="3580" as="sourcePoint" />
            <Array as="points">
              <mxPoint x="-452.4100000000001" y="3580" />
              <mxPoint x="-452.4100000000001" y="3530" />
              <mxPoint x="-489.4100000000001" y="3530" />
            </Array>
          </mxGeometry>
        </mxCell>
        <mxCell id="lM22bVPYpMZWwrCQhP3n-199" value="category id (FK)" style="ellipse;whiteSpace=wrap;html=1;align=center;" vertex="1" parent="1">
          <mxGeometry x="-432.70000000000005" y="3560" width="100" height="40" as="geometry" />
        </mxCell>
        <mxCell id="lM22bVPYpMZWwrCQhP3n-201" style="edgeStyle=orthogonalEdgeStyle;rounded=0;orthogonalLoop=1;jettySize=auto;html=1;exitX=0;exitY=0;exitDx=0;exitDy=0;entryX=0.154;entryY=1.022;entryDx=0;entryDy=0;entryPerimeter=0;" edge="1" parent="1" source="lM22bVPYpMZWwrCQhP3n-197" target="lM22bVPYpMZWwrCQhP3n-184">
          <mxGeometry relative="1" as="geometry">
            <Array as="points">
              <mxPoint x="-598.41" y="3585" />
              <mxPoint x="-574.41" y="3585" />
            </Array>
          </mxGeometry>
        </mxCell>
        <mxCell id="lM22bVPYpMZWwrCQhP3n-202" style="edgeStyle=orthogonalEdgeStyle;rounded=0;orthogonalLoop=1;jettySize=auto;html=1;exitX=0.5;exitY=0;exitDx=0;exitDy=0;entryX=0.316;entryY=1.037;entryDx=0;entryDy=0;entryPerimeter=0;" edge="1" parent="1" source="lM22bVPYpMZWwrCQhP3n-185" target="lM22bVPYpMZWwrCQhP3n-184">
          <mxGeometry relative="1" as="geometry" />
        </mxCell>
        <mxCell id="lM22bVPYpMZWwrCQhP3n-205" style="edgeStyle=orthogonalEdgeStyle;rounded=0;orthogonalLoop=1;jettySize=auto;html=1;exitX=0;exitY=0.5;exitDx=0;exitDy=0;entryX=0.913;entryY=-0.036;entryDx=0;entryDy=0;entryPerimeter=0;" edge="1" parent="1" source="lM22bVPYpMZWwrCQhP3n-186" target="lM22bVPYpMZWwrCQhP3n-184">
          <mxGeometry relative="1" as="geometry" />
        </mxCell>
        <mxCell id="lM22bVPYpMZWwrCQhP3n-211" style="edgeStyle=orthogonalEdgeStyle;rounded=0;orthogonalLoop=1;jettySize=auto;html=1;exitX=1;exitY=0.5;exitDx=0;exitDy=0;entryX=0.073;entryY=-0.007;entryDx=0;entryDy=0;entryPerimeter=0;" edge="1" parent="1" source="lM22bVPYpMZWwrCQhP3n-192" target="lM22bVPYpMZWwrCQhP3n-184">
          <mxGeometry relative="1" as="geometry">
            <Array as="points">
              <mxPoint x="-642.41" y="3520" />
              <mxPoint x="-642.41" y="3460" />
              <mxPoint x="-582.41" y="3460" />
            </Array>
          </mxGeometry>
        </mxCell>
        <mxCell id="lM22bVPYpMZWwrCQhP3n-213" value="Resell_Product" style="whiteSpace=wrap;html=1;align=center;" vertex="1" parent="1">
          <mxGeometry x="903.4399999999998" y="3730" width="100" height="40" as="geometry" />
        </mxCell>
        <mxCell id="lM22bVPYpMZWwrCQhP3n-214" value="rname" style="ellipse;whiteSpace=wrap;html=1;align=center;" vertex="1" parent="1">
          <mxGeometry x="914.75" y="3840" width="100" height="40" as="geometry" />
        </mxCell>
        <mxCell id="lM22bVPYpMZWwrCQhP3n-215" value="rdescription" style="ellipse;whiteSpace=wrap;html=1;align=center;" vertex="1" parent="1">
          <mxGeometry x="1040.3" y="3700" width="100" height="40" as="geometry" />
        </mxCell>
        <mxCell id="lM22bVPYpMZWwrCQhP3n-216" style="edgeStyle=orthogonalEdgeStyle;rounded=0;orthogonalLoop=1;jettySize=auto;html=1;exitX=0;exitY=0;exitDx=0;exitDy=0;entryX=1;entryY=0.25;entryDx=0;entryDy=0;" edge="1" parent="1" source="lM22bVPYpMZWwrCQhP3n-217" target="lM22bVPYpMZWwrCQhP3n-213">
          <mxGeometry relative="1" as="geometry" />
        </mxCell>
        <mxCell id="lM22bVPYpMZWwrCQhP3n-217" value="oprice" style="ellipse;whiteSpace=wrap;html=1;align=center;" vertex="1" parent="1">
          <mxGeometry x="1043.25" y="3760" width="100" height="40" as="geometry" />
        </mxCell>
        <mxCell id="lM22bVPYpMZWwrCQhP3n-218" style="edgeStyle=orthogonalEdgeStyle;rounded=0;orthogonalLoop=1;jettySize=auto;html=1;exitX=0.5;exitY=0;exitDx=0;exitDy=0;entryX=0.5;entryY=1;entryDx=0;entryDy=0;" edge="1" parent="1" source="lM22bVPYpMZWwrCQhP3n-219" target="lM22bVPYpMZWwrCQhP3n-213">
          <mxGeometry relative="1" as="geometry">
            <Array as="points">
              <mxPoint x="1020.3" y="3910" />
              <mxPoint x="1020.3" y="3830" />
              <mxPoint x="980.3" y="3830" />
              <mxPoint x="980.3" y="3790" />
              <mxPoint x="953.3" y="3790" />
            </Array>
          </mxGeometry>
        </mxCell>
        <mxCell id="lM22bVPYpMZWwrCQhP3n-219" value="rprice" style="ellipse;whiteSpace=wrap;html=1;align=center;" vertex="1" parent="1">
          <mxGeometry x="1036.05" y="3860" width="100" height="40" as="geometry" />
        </mxCell>
        <mxCell id="lM22bVPYpMZWwrCQhP3n-220" style="edgeStyle=orthogonalEdgeStyle;rounded=0;orthogonalLoop=1;jettySize=auto;html=1;exitX=1;exitY=0;exitDx=0;exitDy=0;entryX=0;entryY=0.5;entryDx=0;entryDy=0;" edge="1" parent="1" source="lM22bVPYpMZWwrCQhP3n-221" target="lM22bVPYpMZWwrCQhP3n-213">
          <mxGeometry relative="1" as="geometry" />
        </mxCell>
        <mxCell id="lM22bVPYpMZWwrCQhP3n-221" value="rsize" style="ellipse;whiteSpace=wrap;html=1;align=center;" vertex="1" parent="1">
          <mxGeometry x="761.8999999999999" y="3850" width="100" height="40" as="geometry" />
        </mxCell>
        <mxCell id="lM22bVPYpMZWwrCQhP3n-222" style="edgeStyle=orthogonalEdgeStyle;rounded=0;orthogonalLoop=1;jettySize=auto;html=1;exitX=1;exitY=0.5;exitDx=0;exitDy=0;entryX=0;entryY=0.25;entryDx=0;entryDy=0;" edge="1" parent="1" source="lM22bVPYpMZWwrCQhP3n-223" target="lM22bVPYpMZWwrCQhP3n-213">
          <mxGeometry relative="1" as="geometry" />
        </mxCell>
        <mxCell id="lM22bVPYpMZWwrCQhP3n-223" value="rcolor" style="ellipse;whiteSpace=wrap;html=1;align=center;" vertex="1" parent="1">
          <mxGeometry x="726.8999999999999" y="3800" width="100" height="40" as="geometry" />
        </mxCell>
        <mxCell id="lM22bVPYpMZWwrCQhP3n-224" value="rstoke" style="ellipse;whiteSpace=wrap;html=1;align=center;" vertex="1" parent="1">
          <mxGeometry x="726.8999999999999" y="3750" width="100" height="40" as="geometry" />
        </mxCell>
        <mxCell id="lM22bVPYpMZWwrCQhP3n-225" style="edgeStyle=orthogonalEdgeStyle;rounded=0;orthogonalLoop=1;jettySize=auto;html=1;exitX=1;exitY=0.5;exitDx=0;exitDy=0;entryX=0.25;entryY=0;entryDx=0;entryDy=0;" edge="1" parent="1" source="lM22bVPYpMZWwrCQhP3n-226" target="lM22bVPYpMZWwrCQhP3n-213">
          <mxGeometry relative="1" as="geometry">
            <Array as="points">
              <mxPoint x="840.3" y="3720" />
              <mxPoint x="840.3" y="3700" />
              <mxPoint x="928.3" y="3700" />
            </Array>
          </mxGeometry>
        </mxCell>
        <mxCell id="lM22bVPYpMZWwrCQhP3n-226" value="rimages" style="ellipse;whiteSpace=wrap;html=1;align=center;" vertex="1" parent="1">
          <mxGeometry x="718.7" y="3700" width="100" height="40" as="geometry" />
        </mxCell>
        <mxCell id="lM22bVPYpMZWwrCQhP3n-227" style="edgeStyle=orthogonalEdgeStyle;rounded=0;orthogonalLoop=1;jettySize=auto;html=1;exitX=1;exitY=0;exitDx=0;exitDy=0;entryX=0;entryY=1;entryDx=0;entryDy=0;" edge="1" parent="1" source="lM22bVPYpMZWwrCQhP3n-228" target="lM22bVPYpMZWwrCQhP3n-213">
          <mxGeometry relative="1" as="geometry">
            <Array as="points">
              <mxPoint x="856.3" y="3890" />
              <mxPoint x="890.3" y="3890" />
              <mxPoint x="890.3" y="3770" />
            </Array>
          </mxGeometry>
        </mxCell>
        <mxCell id="lM22bVPYpMZWwrCQhP3n-228" value="rbrand" style="ellipse;whiteSpace=wrap;html=1;align=center;" vertex="1" parent="1">
          <mxGeometry x="771.4099999999999" y="3900" width="100" height="40" as="geometry" />
        </mxCell>
        <mxCell id="lM22bVPYpMZWwrCQhP3n-229" style="edgeStyle=orthogonalEdgeStyle;rounded=0;orthogonalLoop=1;jettySize=auto;html=1;exitX=0;exitY=0.5;exitDx=0;exitDy=0;entryX=0.75;entryY=0;entryDx=0;entryDy=0;" edge="1" parent="1" source="lM22bVPYpMZWwrCQhP3n-230" target="lM22bVPYpMZWwrCQhP3n-213">
          <mxGeometry relative="1" as="geometry" />
        </mxCell>
        <mxCell id="lM22bVPYpMZWwrCQhP3n-230" value="Seller_id (FK)" style="ellipse;whiteSpace=wrap;html=1;align=center;" vertex="1" parent="1">
          <mxGeometry x="1023.44" y="3650" width="100" height="40" as="geometry" />
        </mxCell>
        <mxCell id="lM22bVPYpMZWwrCQhP3n-233" value="rdiscount&lt;div&gt;percentage&lt;/div&gt;" style="ellipse;whiteSpace=wrap;html=1;align=center;" vertex="1" parent="1">
          <mxGeometry x="879" y="3900" width="100" height="40" as="geometry" />
        </mxCell>
        <mxCell id="lM22bVPYpMZWwrCQhP3n-234" style="edgeStyle=orthogonalEdgeStyle;rounded=0;orthogonalLoop=1;jettySize=auto;html=1;exitX=0;exitY=0.5;exitDx=0;exitDy=0;entryX=1;entryY=0.75;entryDx=0;entryDy=0;" edge="1" parent="1" source="lM22bVPYpMZWwrCQhP3n-235" target="lM22bVPYpMZWwrCQhP3n-213">
          <mxGeometry relative="1" as="geometry">
            <Array as="points">
              <mxPoint x="1040.3" y="3830" />
              <mxPoint x="1040.3" y="3780" />
              <mxPoint x="1003.3" y="3780" />
            </Array>
          </mxGeometry>
        </mxCell>
        <mxCell id="lM22bVPYpMZWwrCQhP3n-235" value="rcategory id (FK)" style="ellipse;whiteSpace=wrap;html=1;align=center;" vertex="1" parent="1">
          <mxGeometry x="1066.8" y="3810" width="100" height="40" as="geometry" />
        </mxCell>
        <mxCell id="lM22bVPYpMZWwrCQhP3n-236" style="edgeStyle=orthogonalEdgeStyle;rounded=0;orthogonalLoop=1;jettySize=auto;html=1;exitX=0;exitY=0;exitDx=0;exitDy=0;entryX=0.154;entryY=1.022;entryDx=0;entryDy=0;entryPerimeter=0;" edge="1" parent="1" source="lM22bVPYpMZWwrCQhP3n-233" target="lM22bVPYpMZWwrCQhP3n-213">
          <mxGeometry relative="1" as="geometry">
            <Array as="points">
              <mxPoint x="894.3" y="3835" />
              <mxPoint x="918.3" y="3835" />
            </Array>
          </mxGeometry>
        </mxCell>
        <mxCell id="lM22bVPYpMZWwrCQhP3n-237" style="edgeStyle=orthogonalEdgeStyle;rounded=0;orthogonalLoop=1;jettySize=auto;html=1;exitX=0.5;exitY=0;exitDx=0;exitDy=0;entryX=0.316;entryY=1.037;entryDx=0;entryDy=0;entryPerimeter=0;" edge="1" parent="1" source="lM22bVPYpMZWwrCQhP3n-214" target="lM22bVPYpMZWwrCQhP3n-213">
          <mxGeometry relative="1" as="geometry" />
        </mxCell>
        <mxCell id="lM22bVPYpMZWwrCQhP3n-238" style="edgeStyle=orthogonalEdgeStyle;rounded=0;orthogonalLoop=1;jettySize=auto;html=1;exitX=0;exitY=0.5;exitDx=0;exitDy=0;entryX=0.913;entryY=-0.036;entryDx=0;entryDy=0;entryPerimeter=0;" edge="1" parent="1" source="lM22bVPYpMZWwrCQhP3n-215" target="lM22bVPYpMZWwrCQhP3n-213">
          <mxGeometry relative="1" as="geometry" />
        </mxCell>
        <mxCell id="lM22bVPYpMZWwrCQhP3n-239" style="edgeStyle=orthogonalEdgeStyle;rounded=0;orthogonalLoop=1;jettySize=auto;html=1;exitX=1;exitY=0.5;exitDx=0;exitDy=0;entryX=0.073;entryY=-0.007;entryDx=0;entryDy=0;entryPerimeter=0;" edge="1" parent="1" source="lM22bVPYpMZWwrCQhP3n-224" target="lM22bVPYpMZWwrCQhP3n-213">
          <mxGeometry relative="1" as="geometry">
            <Array as="points">
              <mxPoint x="850.3" y="3770" />
              <mxPoint x="850.3" y="3710" />
              <mxPoint x="910.3" y="3710" />
            </Array>
          </mxGeometry>
        </mxCell>
        <mxCell id="lM22bVPYpMZWwrCQhP3n-240" value="admin" style="whiteSpace=wrap;html=1;align=center;" vertex="1" parent="1">
          <mxGeometry x="-332.69999999999993" y="3005" width="100" height="40" as="geometry" />
        </mxCell>
        <mxCell id="lM22bVPYpMZWwrCQhP3n-245" style="edgeStyle=orthogonalEdgeStyle;rounded=0;orthogonalLoop=1;jettySize=auto;html=1;exitX=1;exitY=0.5;exitDx=0;exitDy=0;entryX=0;entryY=0.25;entryDx=0;entryDy=0;" edge="1" parent="1" source="lM22bVPYpMZWwrCQhP3n-241" target="lM22bVPYpMZWwrCQhP3n-240">
          <mxGeometry relative="1" as="geometry" />
        </mxCell>
        <mxCell id="lM22bVPYpMZWwrCQhP3n-241" value="id" style="ellipse;whiteSpace=wrap;html=1;align=center;" vertex="1" parent="1">
          <mxGeometry x="-463.29999999999984" y="2955" width="100" height="40" as="geometry" />
        </mxCell>
        <mxCell id="lM22bVPYpMZWwrCQhP3n-246" style="edgeStyle=orthogonalEdgeStyle;rounded=0;orthogonalLoop=1;jettySize=auto;html=1;exitX=0.5;exitY=1;exitDx=0;exitDy=0;entryX=0.25;entryY=0;entryDx=0;entryDy=0;" edge="1" parent="1" source="lM22bVPYpMZWwrCQhP3n-242" target="lM22bVPYpMZWwrCQhP3n-240">
          <mxGeometry relative="1" as="geometry" />
        </mxCell>
        <mxCell id="lM22bVPYpMZWwrCQhP3n-242" value="name" style="ellipse;whiteSpace=wrap;html=1;align=center;" vertex="1" parent="1">
          <mxGeometry x="-384.12" y="2905" width="100" height="40" as="geometry" />
        </mxCell>
        <mxCell id="lM22bVPYpMZWwrCQhP3n-244" style="edgeStyle=orthogonalEdgeStyle;rounded=0;orthogonalLoop=1;jettySize=auto;html=1;exitX=1;exitY=0.5;exitDx=0;exitDy=0;entryX=0;entryY=0.75;entryDx=0;entryDy=0;" edge="1" parent="1" source="lM22bVPYpMZWwrCQhP3n-243" target="lM22bVPYpMZWwrCQhP3n-240">
          <mxGeometry relative="1" as="geometry" />
        </mxCell>
        <mxCell id="lM22bVPYpMZWwrCQhP3n-243" value="password" style="ellipse;whiteSpace=wrap;html=1;align=center;" vertex="1" parent="1">
          <mxGeometry x="-474.12" y="3015" width="100" height="40" as="geometry" />
        </mxCell>
        <mxCell id="lM22bVPYpMZWwrCQhP3n-247" value="FAQ" style="whiteSpace=wrap;html=1;align=center;" vertex="1" parent="1">
          <mxGeometry x="-1125" y="3170" width="100" height="40" as="geometry" />
        </mxCell>
        <mxCell id="lM22bVPYpMZWwrCQhP3n-251" style="edgeStyle=orthogonalEdgeStyle;rounded=0;orthogonalLoop=1;jettySize=auto;html=1;exitX=1;exitY=0.5;exitDx=0;exitDy=0;entryX=0;entryY=0.5;entryDx=0;entryDy=0;" edge="1" parent="1" source="lM22bVPYpMZWwrCQhP3n-248" target="lM22bVPYpMZWwrCQhP3n-247">
          <mxGeometry relative="1" as="geometry" />
        </mxCell>
        <mxCell id="lM22bVPYpMZWwrCQhP3n-248" value="Fid" style="ellipse;whiteSpace=wrap;html=1;align=center;" vertex="1" parent="1">
          <mxGeometry x="-1265" y="3180" width="100" height="40" as="geometry" />
        </mxCell>
        <mxCell id="lM22bVPYpMZWwrCQhP3n-252" style="edgeStyle=orthogonalEdgeStyle;rounded=0;orthogonalLoop=1;jettySize=auto;html=1;exitX=1;exitY=0.5;exitDx=0;exitDy=0;entryX=0;entryY=1;entryDx=0;entryDy=0;" edge="1" parent="1" source="lM22bVPYpMZWwrCQhP3n-249" target="lM22bVPYpMZWwrCQhP3n-247">
          <mxGeometry relative="1" as="geometry" />
        </mxCell>
        <mxCell id="lM22bVPYpMZWwrCQhP3n-249" value="answer" style="ellipse;whiteSpace=wrap;html=1;align=center;" vertex="1" parent="1">
          <mxGeometry x="-1275" y="3240" width="100" height="40" as="geometry" />
        </mxCell>
        <mxCell id="lM22bVPYpMZWwrCQhP3n-253" style="edgeStyle=orthogonalEdgeStyle;rounded=0;orthogonalLoop=1;jettySize=auto;html=1;exitX=0.5;exitY=0;exitDx=0;exitDy=0;entryX=0.25;entryY=1;entryDx=0;entryDy=0;" edge="1" parent="1" source="lM22bVPYpMZWwrCQhP3n-250" target="lM22bVPYpMZWwrCQhP3n-247">
          <mxGeometry relative="1" as="geometry" />
        </mxCell>
        <mxCell id="lM22bVPYpMZWwrCQhP3n-250" value="questions" style="ellipse;whiteSpace=wrap;html=1;align=center;" vertex="1" parent="1">
          <mxGeometry x="-1155" y="3270" width="100" height="40" as="geometry" />
        </mxCell>
        <mxCell id="lM22bVPYpMZWwrCQhP3n-277" value="Payment" style="whiteSpace=wrap;html=1;align=center;" vertex="1" parent="1">
          <mxGeometry x="-1090" y="3600" width="100" height="40" as="geometry" />
        </mxCell>
        <mxCell id="lM22bVPYpMZWwrCQhP3n-278" value="payment_id" style="ellipse;whiteSpace=wrap;html=1;align=center;" vertex="1" parent="1">
          <mxGeometry x="-1057.97" y="3740" width="100" height="40" as="geometry" />
        </mxCell>
        <mxCell id="lM22bVPYpMZWwrCQhP3n-286" style="edgeStyle=orthogonalEdgeStyle;rounded=0;orthogonalLoop=1;jettySize=auto;html=1;exitX=0;exitY=0.5;exitDx=0;exitDy=0;entryX=1;entryY=0.5;entryDx=0;entryDy=0;" edge="1" parent="1" source="lM22bVPYpMZWwrCQhP3n-279" target="lM22bVPYpMZWwrCQhP3n-277">
          <mxGeometry relative="1" as="geometry" />
        </mxCell>
        <mxCell id="lM22bVPYpMZWwrCQhP3n-279" value="status" style="ellipse;whiteSpace=wrap;html=1;align=center;" vertex="1" parent="1">
          <mxGeometry x="-954.53" y="3600" width="100" height="40" as="geometry" />
        </mxCell>
        <mxCell id="lM22bVPYpMZWwrCQhP3n-287" style="edgeStyle=orthogonalEdgeStyle;rounded=0;orthogonalLoop=1;jettySize=auto;html=1;exitX=0;exitY=0;exitDx=0;exitDy=0;entryX=1;entryY=0.75;entryDx=0;entryDy=0;" edge="1" parent="1" source="lM22bVPYpMZWwrCQhP3n-280" target="lM22bVPYpMZWwrCQhP3n-277">
          <mxGeometry relative="1" as="geometry" />
        </mxCell>
        <mxCell id="lM22bVPYpMZWwrCQhP3n-280" value="customer_id (FK)" style="ellipse;whiteSpace=wrap;html=1;align=center;" vertex="1" parent="1">
          <mxGeometry x="-970" y="3650" width="100" height="40" as="geometry" />
        </mxCell>
        <mxCell id="lM22bVPYpMZWwrCQhP3n-281" value="product_id (FK)" style="ellipse;whiteSpace=wrap;html=1;align=center;" vertex="1" parent="1">
          <mxGeometry x="-996.19" y="3700" width="100" height="40" as="geometry" />
        </mxCell>
        <mxCell id="lM22bVPYpMZWwrCQhP3n-282" value="amount" style="ellipse;whiteSpace=wrap;html=1;align=center;" vertex="1" parent="1">
          <mxGeometry x="-1170" y="3740" width="100" height="40" as="geometry" />
        </mxCell>
        <mxCell id="lM22bVPYpMZWwrCQhP3n-283" value="order_id (FK)" style="ellipse;whiteSpace=wrap;html=1;align=center;" vertex="1" parent="1">
          <mxGeometry x="-1210" y="3680" width="100" height="40" as="geometry" />
        </mxCell>
        <mxCell id="lM22bVPYpMZWwrCQhP3n-292" style="edgeStyle=orthogonalEdgeStyle;rounded=0;orthogonalLoop=1;jettySize=auto;html=1;exitX=1;exitY=0.5;exitDx=0;exitDy=0;entryX=0;entryY=0.75;entryDx=0;entryDy=0;" edge="1" parent="1" source="lM22bVPYpMZWwrCQhP3n-284" target="lM22bVPYpMZWwrCQhP3n-277">
          <mxGeometry relative="1" as="geometry" />
        </mxCell>
        <mxCell id="lM22bVPYpMZWwrCQhP3n-284" value="payment method" style="ellipse;whiteSpace=wrap;html=1;align=center;" vertex="1" parent="1">
          <mxGeometry x="-1240" y="3630" width="100" height="40" as="geometry" />
        </mxCell>
        <mxCell id="lM22bVPYpMZWwrCQhP3n-293" style="edgeStyle=orthogonalEdgeStyle;rounded=0;orthogonalLoop=1;jettySize=auto;html=1;exitX=1;exitY=0.5;exitDx=0;exitDy=0;entryX=0;entryY=0.25;entryDx=0;entryDy=0;" edge="1" parent="1" source="lM22bVPYpMZWwrCQhP3n-285" target="lM22bVPYpMZWwrCQhP3n-277">
          <mxGeometry relative="1" as="geometry" />
        </mxCell>
        <mxCell id="lM22bVPYpMZWwrCQhP3n-285" value="date" style="ellipse;whiteSpace=wrap;html=1;align=center;" vertex="1" parent="1">
          <mxGeometry x="-1210" y="3580" width="100" height="40" as="geometry" />
        </mxCell>
        <mxCell id="lM22bVPYpMZWwrCQhP3n-288" style="edgeStyle=orthogonalEdgeStyle;rounded=0;orthogonalLoop=1;jettySize=auto;html=1;exitX=0;exitY=0;exitDx=0;exitDy=0;entryX=0.834;entryY=1.081;entryDx=0;entryDy=0;entryPerimeter=0;" edge="1" parent="1" source="lM22bVPYpMZWwrCQhP3n-281" target="lM22bVPYpMZWwrCQhP3n-277">
          <mxGeometry relative="1" as="geometry" />
        </mxCell>
        <mxCell id="lM22bVPYpMZWwrCQhP3n-289" style="edgeStyle=orthogonalEdgeStyle;rounded=0;orthogonalLoop=1;jettySize=auto;html=1;exitX=0.5;exitY=0;exitDx=0;exitDy=0;entryX=0.574;entryY=1.033;entryDx=0;entryDy=0;entryPerimeter=0;" edge="1" parent="1" source="lM22bVPYpMZWwrCQhP3n-278" target="lM22bVPYpMZWwrCQhP3n-277">
          <mxGeometry relative="1" as="geometry" />
        </mxCell>
        <mxCell id="lM22bVPYpMZWwrCQhP3n-290" style="edgeStyle=orthogonalEdgeStyle;rounded=0;orthogonalLoop=1;jettySize=auto;html=1;exitX=1;exitY=0;exitDx=0;exitDy=0;entryX=0.327;entryY=1.017;entryDx=0;entryDy=0;entryPerimeter=0;" edge="1" parent="1" source="lM22bVPYpMZWwrCQhP3n-282" target="lM22bVPYpMZWwrCQhP3n-277">
          <mxGeometry relative="1" as="geometry" />
        </mxCell>
        <mxCell id="lM22bVPYpMZWwrCQhP3n-291" style="edgeStyle=orthogonalEdgeStyle;rounded=0;orthogonalLoop=1;jettySize=auto;html=1;exitX=1;exitY=0;exitDx=0;exitDy=0;entryX=0.098;entryY=1.065;entryDx=0;entryDy=0;entryPerimeter=0;" edge="1" parent="1" source="lM22bVPYpMZWwrCQhP3n-283" target="lM22bVPYpMZWwrCQhP3n-277">
          <mxGeometry relative="1" as="geometry" />
        </mxCell>
        <mxCell id="lM22bVPYpMZWwrCQhP3n-298" value="use" style="shape=rhombus;perimeter=rhombusPerimeter;whiteSpace=wrap;html=1;align=center;" vertex="1" parent="1">
          <mxGeometry x="-996.8" y="3180" width="96.8" height="60" as="geometry" />
        </mxCell>
        <mxCell id="lM22bVPYpMZWwrCQhP3n-299" value="report" style="shape=rhombus;perimeter=rhombusPerimeter;whiteSpace=wrap;html=1;align=center;" vertex="1" parent="1">
          <mxGeometry x="-970.25" y="3100" width="85.47" height="60" as="geometry" />
        </mxCell>
        <mxCell id="lM22bVPYpMZWwrCQhP3n-300" value="use" style="shape=rhombus;perimeter=rhombusPerimeter;whiteSpace=wrap;html=1;align=center;" vertex="1" parent="1">
          <mxGeometry x="-1070" y="3340" width="100" height="60" as="geometry" />
        </mxCell>
        <mxCell id="lM22bVPYpMZWwrCQhP3n-301" value="make" style="shape=rhombus;perimeter=rhombusPerimeter;whiteSpace=wrap;html=1;align=center;" vertex="1" parent="1">
          <mxGeometry x="-1004.78" y="3490" width="104.78" height="60" as="geometry" />
        </mxCell>
        <mxCell id="lM22bVPYpMZWwrCQhP3n-302" value="view" style="shape=rhombus;perimeter=rhombusPerimeter;whiteSpace=wrap;html=1;align=center;" vertex="1" parent="1">
          <mxGeometry x="216.95" y="3410" width="120" height="60" as="geometry" />
        </mxCell>
        <mxCell id="lM22bVPYpMZWwrCQhP3n-303" value="added to" style="shape=rhombus;perimeter=rhombusPerimeter;whiteSpace=wrap;html=1;align=center;" vertex="1" parent="1">
          <mxGeometry x="-345" y="3480" width="120" height="60" as="geometry" />
        </mxCell>
        <mxCell id="lM22bVPYpMZWwrCQhP3n-304" value="request" style="shape=rhombus;perimeter=rhombusPerimeter;whiteSpace=wrap;html=1;align=center;" vertex="1" parent="1">
          <mxGeometry x="-4.399999999999977" y="3205" width="120" height="60" as="geometry" />
        </mxCell>
        <mxCell id="lM22bVPYpMZWwrCQhP3n-305" value="view /&amp;nbsp;&lt;div&gt;accept /&amp;nbsp;&lt;div&gt;decline&lt;/div&gt;&lt;/div&gt;" style="shape=rhombus;perimeter=rhombusPerimeter;whiteSpace=wrap;html=1;align=center;" vertex="1" parent="1">
          <mxGeometry x="-44.650000000000006" y="3090" width="120" height="60" as="geometry" />
        </mxCell>
        <mxCell id="lM22bVPYpMZWwrCQhP3n-306" value="manage" style="shape=rhombus;perimeter=rhombusPerimeter;whiteSpace=wrap;html=1;align=center;" vertex="1" parent="1">
          <mxGeometry x="-296.2199999999999" y="3090" width="120" height="60" as="geometry" />
        </mxCell>
        <mxCell id="lM22bVPYpMZWwrCQhP3n-307" value="stylesurfer Website" style="whiteSpace=wrap;html=1;align=center;" vertex="1" parent="1">
          <mxGeometry x="-273.03000000000003" y="3190" width="100" height="40" as="geometry" />
        </mxCell>
        <mxCell id="lM22bVPYpMZWwrCQhP3n-308" value="view" style="shape=rhombus;perimeter=rhombusPerimeter;whiteSpace=wrap;html=1;align=center;" vertex="1" parent="1">
          <mxGeometry x="-601.22" y="3260" width="120" height="60" as="geometry" />
        </mxCell>
        <mxCell id="lM22bVPYpMZWwrCQhP3n-309" value="buy / reddem" style="shape=rhombus;perimeter=rhombusPerimeter;whiteSpace=wrap;html=1;align=center;" vertex="1" parent="1">
          <mxGeometry x="-673.4" y="3880" width="120" height="60" as="geometry" />
        </mxCell>
        <mxCell id="lM22bVPYpMZWwrCQhP3n-311" value="place" style="shape=rhombus;perimeter=rhombusPerimeter;whiteSpace=wrap;html=1;align=center;" vertex="1" parent="1">
          <mxGeometry x="-132.2" y="3330" width="120" height="60" as="geometry" />
        </mxCell>
        <mxCell id="lM22bVPYpMZWwrCQhP3n-314" value="has" style="shape=rhombus;perimeter=rhombusPerimeter;whiteSpace=wrap;html=1;align=center;" vertex="1" parent="1">
          <mxGeometry x="883.4399999999998" y="3560" width="120" height="60" as="geometry" />
        </mxCell>
        <mxCell id="lM22bVPYpMZWwrCQhP3n-318" value="" style="endArrow=none;html=1;rounded=0;entryX=0.25;entryY=1;entryDx=0;entryDy=0;exitX=1;exitY=0.5;exitDx=0;exitDy=0;" edge="1" parent="1" source="lM22bVPYpMZWwrCQhP3n-298" target="lM22bVPYpMZWwrCQhP3n-1">
          <mxGeometry width="50" height="50" relative="1" as="geometry">
            <mxPoint x="-770" y="3170" as="sourcePoint" />
            <mxPoint x="-720" y="3120" as="targetPoint" />
          </mxGeometry>
        </mxCell>
        <mxCell id="lM22bVPYpMZWwrCQhP3n-319" value="" style="endArrow=none;html=1;rounded=0;exitX=1;exitY=0.25;exitDx=0;exitDy=0;entryX=0;entryY=0.5;entryDx=0;entryDy=0;" edge="1" parent="1" source="lM22bVPYpMZWwrCQhP3n-247" target="lM22bVPYpMZWwrCQhP3n-298">
          <mxGeometry width="50" height="50" relative="1" as="geometry">
            <mxPoint x="-770" y="3170" as="sourcePoint" />
            <mxPoint x="-720" y="3120" as="targetPoint" />
          </mxGeometry>
        </mxCell>
        <mxCell id="lM22bVPYpMZWwrCQhP3n-320" value="" style="endArrow=none;html=1;rounded=0;exitX=0.897;exitY=0.48;exitDx=0;exitDy=0;exitPerimeter=0;entryX=0;entryY=1;entryDx=0;entryDy=0;" edge="1" parent="1" source="lM22bVPYpMZWwrCQhP3n-299" target="lM22bVPYpMZWwrCQhP3n-1">
          <mxGeometry width="50" height="50" relative="1" as="geometry">
            <mxPoint x="-770" y="3100" as="sourcePoint" />
            <mxPoint x="-720" y="3050" as="targetPoint" />
          </mxGeometry>
        </mxCell>
        <mxCell id="lM22bVPYpMZWwrCQhP3n-321" value="" style="endArrow=none;html=1;rounded=0;exitX=0.5;exitY=1;exitDx=0;exitDy=0;entryX=0;entryY=0.5;entryDx=0;entryDy=0;" edge="1" parent="1" source="lM22bVPYpMZWwrCQhP3n-43" target="lM22bVPYpMZWwrCQhP3n-299">
          <mxGeometry width="50" height="50" relative="1" as="geometry">
            <mxPoint x="-770" y="3100" as="sourcePoint" />
            <mxPoint x="-720" y="3050" as="targetPoint" />
          </mxGeometry>
        </mxCell>
        <mxCell id="lM22bVPYpMZWwrCQhP3n-326" value="" style="line;strokeWidth=1;rotatable=0;dashed=0;labelPosition=right;align=left;verticalAlign=middle;spacingTop=0;spacingLeft=6;points=[];portConstraint=eastwest;" vertex="1" parent="1">
          <mxGeometry x="-1186.87" y="3045" width="60" height="10" as="geometry" />
        </mxCell>
        <mxCell id="lM22bVPYpMZWwrCQhP3n-327" value="" style="line;strokeWidth=1;rotatable=0;dashed=0;labelPosition=right;align=left;verticalAlign=middle;spacingTop=0;spacingLeft=6;points=[];portConstraint=eastwest;" vertex="1" parent="1">
          <mxGeometry x="-1245" y="3205" width="60" height="10" as="geometry" />
        </mxCell>
        <mxCell id="lM22bVPYpMZWwrCQhP3n-328" value="" style="line;strokeWidth=1;rotatable=0;dashed=0;labelPosition=right;align=left;verticalAlign=middle;spacingTop=0;spacingLeft=6;points=[];portConstraint=eastwest;" vertex="1" parent="1">
          <mxGeometry x="-1220.0000000000002" y="3370" width="60" height="10" as="geometry" />
        </mxCell>
        <mxCell id="lM22bVPYpMZWwrCQhP3n-329" value="" style="endArrow=none;html=1;rounded=0;entryX=0.25;entryY=1;entryDx=0;entryDy=0;exitX=1;exitY=0.5;exitDx=0;exitDy=0;" edge="1" parent="1" source="lM22bVPYpMZWwrCQhP3n-300" target="lM22bVPYpMZWwrCQhP3n-1">
          <mxGeometry width="50" height="50" relative="1" as="geometry">
            <mxPoint x="-710" y="3270" as="sourcePoint" />
            <mxPoint x="-660" y="3220" as="targetPoint" />
          </mxGeometry>
        </mxCell>
        <mxCell id="lM22bVPYpMZWwrCQhP3n-330" value="" style="endArrow=none;html=1;rounded=0;exitX=0.5;exitY=0;exitDx=0;exitDy=0;entryX=0;entryY=0.5;entryDx=0;entryDy=0;" edge="1" parent="1" source="lM22bVPYpMZWwrCQhP3n-153" target="lM22bVPYpMZWwrCQhP3n-300">
          <mxGeometry width="50" height="50" relative="1" as="geometry">
            <mxPoint x="-710" y="3270" as="sourcePoint" />
            <mxPoint x="-660" y="3220" as="targetPoint" />
          </mxGeometry>
        </mxCell>
        <mxCell id="lM22bVPYpMZWwrCQhP3n-331" value="" style="endArrow=none;html=1;rounded=0;entryX=0.5;entryY=1;entryDx=0;entryDy=0;exitX=1;exitY=0.5;exitDx=0;exitDy=0;" edge="1" parent="1" source="lM22bVPYpMZWwrCQhP3n-301" target="lM22bVPYpMZWwrCQhP3n-1">
          <mxGeometry width="50" height="50" relative="1" as="geometry">
            <mxPoint x="-720" y="3430" as="sourcePoint" />
            <mxPoint x="-780" y="3041.794621394231" as="targetPoint" />
          </mxGeometry>
        </mxCell>
        <mxCell id="lM22bVPYpMZWwrCQhP3n-332" value="" style="endArrow=none;html=1;rounded=0;exitX=0.25;exitY=0;exitDx=0;exitDy=0;entryX=0;entryY=0.5;entryDx=0;entryDy=0;" edge="1" parent="1" source="lM22bVPYpMZWwrCQhP3n-277" target="lM22bVPYpMZWwrCQhP3n-301">
          <mxGeometry width="50" height="50" relative="1" as="geometry">
            <mxPoint x="-720" y="3330" as="sourcePoint" />
            <mxPoint x="-670" y="3280" as="targetPoint" />
          </mxGeometry>
        </mxCell>
        <mxCell id="lM22bVPYpMZWwrCQhP3n-333" value="" style="line;strokeWidth=1;rotatable=0;dashed=0;labelPosition=right;align=left;verticalAlign=middle;spacingTop=0;spacingLeft=6;points=[];portConstraint=eastwest;" vertex="1" parent="1">
          <mxGeometry x="-1037.97" y="3760" width="60" height="10" as="geometry" />
        </mxCell>
        <mxCell id="lM22bVPYpMZWwrCQhP3n-334" value="" style="endArrow=none;html=1;rounded=0;entryX=0.5;entryY=1;entryDx=0;entryDy=0;exitX=1;exitY=0.5;exitDx=0;exitDy=0;" edge="1" parent="1" source="lM22bVPYpMZWwrCQhP3n-306" target="lM22bVPYpMZWwrCQhP3n-240">
          <mxGeometry width="50" height="50" relative="1" as="geometry">
            <mxPoint x="-100" y="3190" as="sourcePoint" />
            <mxPoint x="-50" y="3140" as="targetPoint" />
          </mxGeometry>
        </mxCell>
        <mxCell id="lM22bVPYpMZWwrCQhP3n-335" value="" style="endArrow=none;html=1;rounded=0;exitX=0.25;exitY=0;exitDx=0;exitDy=0;entryX=0;entryY=0.5;entryDx=0;entryDy=0;" edge="1" parent="1" source="lM22bVPYpMZWwrCQhP3n-307" target="lM22bVPYpMZWwrCQhP3n-306">
          <mxGeometry width="50" height="50" relative="1" as="geometry">
            <mxPoint x="-100" y="3190" as="sourcePoint" />
            <mxPoint x="-50" y="3140" as="targetPoint" />
          </mxGeometry>
        </mxCell>
        <mxCell id="lM22bVPYpMZWwrCQhP3n-336" value="" style="line;strokeWidth=1;rotatable=0;dashed=0;labelPosition=right;align=left;verticalAlign=middle;spacingTop=0;spacingLeft=6;points=[];portConstraint=eastwest;" vertex="1" parent="1">
          <mxGeometry x="-442.22" y="2980" width="60" height="10" as="geometry" />
        </mxCell>
        <mxCell id="lM22bVPYpMZWwrCQhP3n-337" value="has" style="shape=rhombus;perimeter=rhombusPerimeter;whiteSpace=wrap;html=1;align=center;" vertex="1" parent="1">
          <mxGeometry x="-550" y="3090" width="100.48" height="60" as="geometry" />
        </mxCell>
        <mxCell id="lM22bVPYpMZWwrCQhP3n-339" value="" style="endArrow=none;html=1;rounded=0;entryX=0;entryY=0;entryDx=0;entryDy=0;exitX=1;exitY=0.5;exitDx=0;exitDy=0;" edge="1" parent="1" source="lM22bVPYpMZWwrCQhP3n-337" target="lM22bVPYpMZWwrCQhP3n-307">
          <mxGeometry width="50" height="50" relative="1" as="geometry">
            <mxPoint x="-640" y="3090" as="sourcePoint" />
            <mxPoint x="-590" y="3040" as="targetPoint" />
          </mxGeometry>
        </mxCell>
        <mxCell id="lM22bVPYpMZWwrCQhP3n-340" value="" style="endArrow=none;html=1;rounded=0;entryX=0;entryY=0.5;entryDx=0;entryDy=0;exitX=1;exitY=0.75;exitDx=0;exitDy=0;" edge="1" parent="1" source="lM22bVPYpMZWwrCQhP3n-1" target="lM22bVPYpMZWwrCQhP3n-337">
          <mxGeometry width="50" height="50" relative="1" as="geometry">
            <mxPoint x="-640" y="3090" as="sourcePoint" />
            <mxPoint x="-590" y="3040" as="targetPoint" />
            <Array as="points">
              <mxPoint x="-580" y="3040" />
            </Array>
          </mxGeometry>
        </mxCell>
        <mxCell id="lM22bVPYpMZWwrCQhP3n-341" value="" style="endArrow=none;html=1;rounded=0;entryX=0.662;entryY=0.947;entryDx=0;entryDy=0;entryPerimeter=0;exitX=0.5;exitY=0;exitDx=0;exitDy=0;" edge="1" parent="1" source="lM22bVPYpMZWwrCQhP3n-308" target="lM22bVPYpMZWwrCQhP3n-1">
          <mxGeometry width="50" height="50" relative="1" as="geometry">
            <mxPoint x="-410" y="3210" as="sourcePoint" />
            <mxPoint x="-360" y="3160" as="targetPoint" />
          </mxGeometry>
        </mxCell>
        <mxCell id="lM22bVPYpMZWwrCQhP3n-342" value="" style="endArrow=none;html=1;rounded=0;exitX=0.404;exitY=-0.092;exitDx=0;exitDy=0;exitPerimeter=0;entryX=0.5;entryY=1;entryDx=0;entryDy=0;" edge="1" parent="1" source="lM22bVPYpMZWwrCQhP3n-184" target="lM22bVPYpMZWwrCQhP3n-308">
          <mxGeometry width="50" height="50" relative="1" as="geometry">
            <mxPoint x="-410" y="3210" as="sourcePoint" />
            <mxPoint x="-360" y="3160" as="targetPoint" />
          </mxGeometry>
        </mxCell>
        <mxCell id="lM22bVPYpMZWwrCQhP3n-343" value="" style="endArrow=none;html=1;rounded=0;entryX=1;entryY=0.5;entryDx=0;entryDy=0;exitX=0.25;exitY=0;exitDx=0;exitDy=0;" edge="1" parent="1" source="lM22bVPYpMZWwrCQhP3n-84" target="lM22bVPYpMZWwrCQhP3n-308">
          <mxGeometry width="50" height="50" relative="1" as="geometry">
            <mxPoint x="-180" y="3310" as="sourcePoint" />
            <mxPoint x="-130" y="3260" as="targetPoint" />
            <Array as="points">
              <mxPoint x="-70" y="3490" />
              <mxPoint x="-100" y="3440" />
              <mxPoint x="-180" y="3370" />
            </Array>
          </mxGeometry>
        </mxCell>
        <mxCell id="lM22bVPYpMZWwrCQhP3n-344" value="" style="endArrow=none;html=1;rounded=0;entryX=0;entryY=0;entryDx=0;entryDy=0;exitX=1;exitY=0.5;exitDx=0;exitDy=0;" edge="1" parent="1" source="lM22bVPYpMZWwrCQhP3n-303" target="lM22bVPYpMZWwrCQhP3n-84">
          <mxGeometry width="50" height="50" relative="1" as="geometry">
            <mxPoint x="-130" y="3570" as="sourcePoint" />
            <mxPoint x="-80" y="3520" as="targetPoint" />
          </mxGeometry>
        </mxCell>
        <mxCell id="lM22bVPYpMZWwrCQhP3n-345" value="" style="endArrow=none;html=1;rounded=0;exitX=1;exitY=0.5;exitDx=0;exitDy=0;" edge="1" parent="1" source="lM22bVPYpMZWwrCQhP3n-184">
          <mxGeometry width="50" height="50" relative="1" as="geometry">
            <mxPoint x="-130" y="3570" as="sourcePoint" />
            <mxPoint x="-340" y="3510" as="targetPoint" />
          </mxGeometry>
        </mxCell>
        <mxCell id="lM22bVPYpMZWwrCQhP3n-346" value="" style="endArrow=none;html=1;rounded=0;exitX=0.5;exitY=1;exitDx=0;exitDy=0;entryX=0;entryY=0.5;entryDx=0;entryDy=0;" edge="1" parent="1" source="lM22bVPYpMZWwrCQhP3n-1" target="lM22bVPYpMZWwrCQhP3n-311">
          <mxGeometry width="50" height="50" relative="1" as="geometry">
            <mxPoint x="-320" y="3300" as="sourcePoint" />
            <mxPoint x="-270" y="3250" as="targetPoint" />
          </mxGeometry>
        </mxCell>
        <mxCell id="lM22bVPYpMZWwrCQhP3n-347" value="" style="endArrow=none;html=1;rounded=0;exitX=1;exitY=0.5;exitDx=0;exitDy=0;entryX=0.5;entryY=1;entryDx=0;entryDy=0;" edge="1" parent="1" source="lM22bVPYpMZWwrCQhP3n-311" target="lM22bVPYpMZWwrCQhP3n-102">
          <mxGeometry width="50" height="50" relative="1" as="geometry">
            <mxPoint x="60" y="3200" as="sourcePoint" />
            <mxPoint x="600" y="3320" as="targetPoint" />
            <Array as="points">
              <mxPoint x="800" y="3370" />
            </Array>
          </mxGeometry>
        </mxCell>
        <mxCell id="lM22bVPYpMZWwrCQhP3n-348" value="has" style="shape=rhombus;perimeter=rhombusPerimeter;whiteSpace=wrap;html=1;align=center;" vertex="1" parent="1">
          <mxGeometry x="-259.31" y="3690" width="109.31" height="60" as="geometry" />
        </mxCell>
        <mxCell id="lM22bVPYpMZWwrCQhP3n-349" value="" style="endArrow=none;html=1;rounded=0;exitX=0.5;exitY=1;exitDx=0;exitDy=0;entryX=0;entryY=0.5;entryDx=0;entryDy=0;" edge="1" parent="1" source="lM22bVPYpMZWwrCQhP3n-184" target="lM22bVPYpMZWwrCQhP3n-348">
          <mxGeometry width="50" height="50" relative="1" as="geometry">
            <mxPoint x="-140" y="3650" as="sourcePoint" />
            <mxPoint x="-90" y="3600" as="targetPoint" />
            <Array as="points">
              <mxPoint x="-410" y="3650" />
            </Array>
          </mxGeometry>
        </mxCell>
        <mxCell id="lM22bVPYpMZWwrCQhP3n-350" value="" style="endArrow=none;html=1;rounded=0;exitX=1;exitY=0.5;exitDx=0;exitDy=0;entryX=0;entryY=0.5;entryDx=0;entryDy=0;" edge="1" parent="1" source="lM22bVPYpMZWwrCQhP3n-348" target="lM22bVPYpMZWwrCQhP3n-168">
          <mxGeometry width="50" height="50" relative="1" as="geometry">
            <mxPoint x="-140" y="3650" as="sourcePoint" />
            <mxPoint x="-90" y="3600" as="targetPoint" />
          </mxGeometry>
        </mxCell>
        <mxCell id="lM22bVPYpMZWwrCQhP3n-351" value="view" style="shape=rhombus;perimeter=rhombusPerimeter;whiteSpace=wrap;html=1;align=center;" vertex="1" parent="1">
          <mxGeometry x="805.6" y="2980" width="120" height="60" as="geometry" />
        </mxCell>
        <mxCell id="lM22bVPYpMZWwrCQhP3n-352" value="" style="endArrow=none;html=1;rounded=0;exitX=1;exitY=0.5;exitDx=0;exitDy=0;entryX=0;entryY=0.5;entryDx=0;entryDy=0;" edge="1" parent="1" source="lM22bVPYpMZWwrCQhP3n-16" target="lM22bVPYpMZWwrCQhP3n-351">
          <mxGeometry width="50" height="50" relative="1" as="geometry">
            <mxPoint x="790" y="3080" as="sourcePoint" />
            <mxPoint x="840" y="3030" as="targetPoint" />
          </mxGeometry>
        </mxCell>
        <mxCell id="lM22bVPYpMZWwrCQhP3n-353" value="" style="endArrow=none;html=1;rounded=0;entryX=0;entryY=0.5;entryDx=0;entryDy=0;exitX=1;exitY=0.5;exitDx=0;exitDy=0;" edge="1" parent="1" source="lM22bVPYpMZWwrCQhP3n-351" target="lM22bVPYpMZWwrCQhP3n-163">
          <mxGeometry width="50" height="50" relative="1" as="geometry">
            <mxPoint x="790" y="3080" as="sourcePoint" />
            <mxPoint x="840" y="3030" as="targetPoint" />
          </mxGeometry>
        </mxCell>
        <mxCell id="lM22bVPYpMZWwrCQhP3n-354" value="" style="endArrow=none;html=1;rounded=0;exitX=0.5;exitY=1;exitDx=0;exitDy=0;entryX=0;entryY=0.5;entryDx=0;entryDy=0;" edge="1" parent="1" source="lM22bVPYpMZWwrCQhP3n-1" target="lM22bVPYpMZWwrCQhP3n-304">
          <mxGeometry width="50" height="50" relative="1" as="geometry">
            <mxPoint x="-190" y="3240" as="sourcePoint" />
            <mxPoint x="-140" y="3190" as="targetPoint" />
            <Array as="points">
              <mxPoint x="-390" y="3260" />
            </Array>
          </mxGeometry>
        </mxCell>
        <mxCell id="lM22bVPYpMZWwrCQhP3n-355" value="" style="endArrow=none;html=1;rounded=0;exitX=1;exitY=0.5;exitDx=0;exitDy=0;entryX=0.5;entryY=1;entryDx=0;entryDy=0;" edge="1" parent="1" source="lM22bVPYpMZWwrCQhP3n-304" target="lM22bVPYpMZWwrCQhP3n-73">
          <mxGeometry width="50" height="50" relative="1" as="geometry">
            <mxPoint x="180" y="3240" as="sourcePoint" />
            <mxPoint x="230" y="3190" as="targetPoint" />
            <Array as="points">
              <mxPoint x="270" y="3250" />
            </Array>
          </mxGeometry>
        </mxCell>
        <mxCell id="lM22bVPYpMZWwrCQhP3n-356" value="" style="endArrow=none;html=1;rounded=0;entryX=0.25;entryY=1;entryDx=0;entryDy=0;exitX=0.5;exitY=0;exitDx=0;exitDy=0;" edge="1" parent="1" source="lM22bVPYpMZWwrCQhP3n-305" target="lM22bVPYpMZWwrCQhP3n-30">
          <mxGeometry width="50" height="50" relative="1" as="geometry">
            <mxPoint x="270" y="3110" as="sourcePoint" />
            <mxPoint x="320" y="3060" as="targetPoint" />
          </mxGeometry>
        </mxCell>
        <mxCell id="lM22bVPYpMZWwrCQhP3n-358" value="" style="endArrow=none;html=1;rounded=0;exitX=1;exitY=0.5;exitDx=0;exitDy=0;entryX=0.25;entryY=0;entryDx=0;entryDy=0;" edge="1" parent="1" source="lM22bVPYpMZWwrCQhP3n-305" target="lM22bVPYpMZWwrCQhP3n-73">
          <mxGeometry width="50" height="50" relative="1" as="geometry">
            <mxPoint x="270" y="3110" as="sourcePoint" />
            <mxPoint x="320" y="3060" as="targetPoint" />
            <Array as="points">
              <mxPoint x="200" y="3070" />
            </Array>
          </mxGeometry>
        </mxCell>
        <mxCell id="lM22bVPYpMZWwrCQhP3n-359" value="" style="endArrow=none;html=1;rounded=0;exitX=0.25;exitY=1;exitDx=0;exitDy=0;entryX=0;entryY=0.5;entryDx=0;entryDy=0;" edge="1" parent="1" source="lM22bVPYpMZWwrCQhP3n-1" target="lM22bVPYpMZWwrCQhP3n-302">
          <mxGeometry width="50" height="50" relative="1" as="geometry">
            <mxPoint x="-350" y="3210" as="sourcePoint" />
            <mxPoint x="-300" y="3160" as="targetPoint" />
            <Array as="points">
              <mxPoint x="-10" y="3330" />
            </Array>
          </mxGeometry>
        </mxCell>
        <mxCell id="lM22bVPYpMZWwrCQhP3n-360" value="" style="endArrow=none;html=1;rounded=0;exitX=1;exitY=0.5;exitDx=0;exitDy=0;entryX=0.5;entryY=0;entryDx=0;entryDy=0;" edge="1" parent="1" source="lM22bVPYpMZWwrCQhP3n-302" target="lM22bVPYpMZWwrCQhP3n-213">
          <mxGeometry width="50" height="50" relative="1" as="geometry">
            <mxPoint x="440" y="3680" as="sourcePoint" />
            <mxPoint x="1100" y="3690" as="targetPoint" />
            <Array as="points">
              <mxPoint x="890" y="3640" />
            </Array>
          </mxGeometry>
        </mxCell>
        <mxCell id="lM22bVPYpMZWwrCQhP3n-361" value="" style="endArrow=none;html=1;rounded=0;exitX=0.626;exitY=0.019;exitDx=0;exitDy=0;exitPerimeter=0;entryX=0.5;entryY=1;entryDx=0;entryDy=0;" edge="1" parent="1" source="lM22bVPYpMZWwrCQhP3n-213" target="lM22bVPYpMZWwrCQhP3n-314">
          <mxGeometry width="50" height="50" relative="1" as="geometry">
            <mxPoint x="536.05" y="3620" as="sourcePoint" />
            <mxPoint x="586.05" y="3570" as="targetPoint" />
          </mxGeometry>
        </mxCell>
        <mxCell id="lM22bVPYpMZWwrCQhP3n-362" value="" style="endArrow=none;html=1;rounded=0;entryX=0;entryY=0.5;entryDx=0;entryDy=0;exitX=0;exitY=0.5;exitDx=0;exitDy=0;" edge="1" parent="1" source="lM22bVPYpMZWwrCQhP3n-314" target="lM22bVPYpMZWwrCQhP3n-177">
          <mxGeometry width="50" height="50" relative="1" as="geometry">
            <mxPoint x="536.05" y="3620" as="sourcePoint" />
            <mxPoint x="586.05" y="3570" as="targetPoint" />
            <Array as="points">
              <mxPoint x="816.05" y="3460" />
            </Array>
          </mxGeometry>
        </mxCell>
        <mxCell id="lM22bVPYpMZWwrCQhP3n-363" value="writes" style="shape=rhombus;perimeter=rhombusPerimeter;whiteSpace=wrap;html=1;align=center;" vertex="1" parent="1">
          <mxGeometry x="-1090" y="3820" width="120" height="60" as="geometry" />
        </mxCell>
        <mxCell id="lM22bVPYpMZWwrCQhP3n-364" value="" style="endArrow=none;html=1;rounded=0;entryX=0.5;entryY=0;entryDx=0;entryDy=0;exitX=1;exitY=0.5;exitDx=0;exitDy=0;" edge="1" parent="1" source="lM22bVPYpMZWwrCQhP3n-309" target="lM22bVPYpMZWwrCQhP3n-128">
          <mxGeometry width="50" height="50" relative="1" as="geometry">
            <mxPoint x="-620" y="4020" as="sourcePoint" />
            <mxPoint x="-570" y="3970" as="targetPoint" />
          </mxGeometry>
        </mxCell>
        <mxCell id="lM22bVPYpMZWwrCQhP3n-365" value="" style="endArrow=none;html=1;rounded=0;entryX=0;entryY=0.5;entryDx=0;entryDy=0;exitX=1;exitY=0.5;exitDx=0;exitDy=0;" edge="1" parent="1" source="lM22bVPYpMZWwrCQhP3n-141" target="lM22bVPYpMZWwrCQhP3n-309">
          <mxGeometry width="50" height="50" relative="1" as="geometry">
            <mxPoint x="-690" y="3990" as="sourcePoint" />
            <mxPoint x="-640" y="3940" as="targetPoint" />
          </mxGeometry>
        </mxCell>
        <mxCell id="lM22bVPYpMZWwrCQhP3n-367" value="" style="endArrow=none;html=1;rounded=0;entryX=0.5;entryY=1;entryDx=0;entryDy=0;exitX=1;exitY=0;exitDx=0;exitDy=0;" edge="1" parent="1" source="lM22bVPYpMZWwrCQhP3n-118" target="lM22bVPYpMZWwrCQhP3n-304">
          <mxGeometry width="50" height="50" relative="1" as="geometry">
            <mxPoint x="120" y="3790" as="sourcePoint" />
            <mxPoint x="210" y="3400" as="targetPoint" />
            <Array as="points">
              <mxPoint x="150" y="3780" />
              <mxPoint x="250" y="3610" />
            </Array>
          </mxGeometry>
        </mxCell>
        <mxCell id="lM22bVPYpMZWwrCQhP3n-368" value="" style="endArrow=none;html=1;rounded=0;entryX=0;entryY=0.5;entryDx=0;entryDy=0;exitX=0.25;exitY=0;exitDx=0;exitDy=0;" edge="1" parent="1" source="lM22bVPYpMZWwrCQhP3n-141" target="lM22bVPYpMZWwrCQhP3n-308">
          <mxGeometry width="50" height="50" relative="1" as="geometry">
            <mxPoint x="-850" y="3570" as="sourcePoint" />
            <mxPoint x="-770" y="3410" as="targetPoint" />
            <Array as="points">
              <mxPoint x="-840" y="3570" />
              <mxPoint x="-750" y="3400" />
            </Array>
          </mxGeometry>
        </mxCell>
        <mxCell id="lM22bVPYpMZWwrCQhP3n-369" value="" style="endArrow=none;html=1;rounded=0;entryX=0;entryY=0.75;entryDx=0;entryDy=0;exitX=1;exitY=0.5;exitDx=0;exitDy=0;" edge="1" parent="1" source="lM22bVPYpMZWwrCQhP3n-363" target="lM22bVPYpMZWwrCQhP3n-1">
          <mxGeometry width="50" height="50" relative="1" as="geometry">
            <mxPoint x="-830" y="3660" as="sourcePoint" />
            <mxPoint x="-900" y="3030" as="targetPoint" />
            <Array as="points">
              <mxPoint x="-818" y="3790" />
              <mxPoint x="-830" y="3500" />
            </Array>
          </mxGeometry>
        </mxCell>
        <mxCell id="lM22bVPYpMZWwrCQhP3n-370" value="" style="endArrow=none;html=1;rounded=0;exitX=1;exitY=0.5;exitDx=0;exitDy=0;entryX=0;entryY=0.5;entryDx=0;entryDy=0;" edge="1" parent="1" source="lM22bVPYpMZWwrCQhP3n-54" target="lM22bVPYpMZWwrCQhP3n-363">
          <mxGeometry width="50" height="50" relative="1" as="geometry">
            <mxPoint x="-1000" y="3710" as="sourcePoint" />
            <mxPoint x="-950" y="3660" as="targetPoint" />
          </mxGeometry>
        </mxCell>
        <mxCell id="lM22bVPYpMZWwrCQhP3n-371" value="sells" style="shape=rhombus;perimeter=rhombusPerimeter;whiteSpace=wrap;html=1;align=center;" vertex="1" parent="1">
          <mxGeometry x="-150.3" y="3140" width="120" height="60" as="geometry" />
        </mxCell>
        <mxCell id="lM22bVPYpMZWwrCQhP3n-372" value="" style="endArrow=none;html=1;rounded=0;entryX=0;entryY=1;entryDx=0;entryDy=0;exitX=0.5;exitY=0;exitDx=0;exitDy=0;" edge="1" parent="1" source="lM22bVPYpMZWwrCQhP3n-371" target="lM22bVPYpMZWwrCQhP3n-30">
          <mxGeometry width="50" height="50" relative="1" as="geometry">
            <mxPoint x="-150" y="3290" as="sourcePoint" />
            <mxPoint x="-100" y="3240" as="targetPoint" />
          </mxGeometry>
        </mxCell>
        <mxCell id="lM22bVPYpMZWwrCQhP3n-373" value="" style="endArrow=none;html=1;rounded=0;entryX=0.5;entryY=1;entryDx=0;entryDy=0;exitX=0.5;exitY=0;exitDx=0;exitDy=0;" edge="1" parent="1" source="lM22bVPYpMZWwrCQhP3n-184" target="lM22bVPYpMZWwrCQhP3n-371">
          <mxGeometry width="50" height="50" relative="1" as="geometry">
            <mxPoint x="-150" y="3290" as="sourcePoint" />
            <mxPoint x="-100" y="3240" as="targetPoint" />
            <Array as="points">
              <mxPoint x="-410" y="3310" />
            </Array>
          </mxGeometry>
        </mxCell>
        <mxCell id="lM22bVPYpMZWwrCQhP3n-374" value="" style="line;strokeWidth=1;rotatable=0;dashed=0;labelPosition=right;align=left;verticalAlign=middle;spacingTop=0;spacingLeft=6;points=[];portConstraint=eastwest;" vertex="1" parent="1">
          <mxGeometry x="-683.12" y="2920" width="60" height="10" as="geometry" />
        </mxCell>
        <mxCell id="lM22bVPYpMZWwrCQhP3n-375" value="" style="line;strokeWidth=1;rotatable=0;dashed=0;labelPosition=right;align=left;verticalAlign=middle;spacingTop=0;spacingLeft=6;points=[];portConstraint=eastwest;" vertex="1" parent="1">
          <mxGeometry x="-56.839999999999975" y="2915" width="60" height="10" as="geometry" />
        </mxCell>
        <mxCell id="lM22bVPYpMZWwrCQhP3n-376" value="" style="line;strokeWidth=1;rotatable=0;dashed=0;labelPosition=right;align=left;verticalAlign=middle;spacingTop=0;spacingLeft=6;points=[];portConstraint=eastwest;" vertex="1" parent="1">
          <mxGeometry x="418.05" y="2925" width="60" height="10" as="geometry" />
        </mxCell>
        <mxCell id="lM22bVPYpMZWwrCQhP3n-377" value="" style="line;strokeWidth=1;rotatable=0;dashed=0;labelPosition=right;align=left;verticalAlign=middle;spacingTop=0;spacingLeft=6;points=[];portConstraint=eastwest;" vertex="1" parent="1">
          <mxGeometry x="1191.1" y="2955" width="60" height="10" as="geometry" />
        </mxCell>
        <mxCell id="lM22bVPYpMZWwrCQhP3n-379" value="" style="line;strokeWidth=1;rotatable=0;dashed=0;labelPosition=right;align=left;verticalAlign=middle;spacingTop=0;spacingLeft=6;points=[];portConstraint=eastwest;" vertex="1" parent="1">
          <mxGeometry x="919" y="3215" width="60" height="10" as="geometry" />
        </mxCell>
        <mxCell id="lM22bVPYpMZWwrCQhP3n-380" value="" style="line;strokeWidth=1;rotatable=0;dashed=0;labelPosition=right;align=left;verticalAlign=middle;spacingTop=0;spacingLeft=6;points=[];portConstraint=eastwest;" vertex="1" parent="1">
          <mxGeometry x="1139" y="3495" width="60" height="10" as="geometry" />
        </mxCell>
        <mxCell id="lM22bVPYpMZWwrCQhP3n-382" value="rid" style="ellipse;whiteSpace=wrap;html=1;align=center;" vertex="1" parent="1">
          <mxGeometry x="1011.0799999999999" y="3930" width="100" height="40" as="geometry" />
        </mxCell>
        <mxCell id="lM22bVPYpMZWwrCQhP3n-383" style="edgeStyle=orthogonalEdgeStyle;rounded=0;orthogonalLoop=1;jettySize=auto;html=1;exitX=0;exitY=0;exitDx=0;exitDy=0;entryX=0.817;entryY=1.059;entryDx=0;entryDy=0;entryPerimeter=0;" edge="1" parent="1" source="lM22bVPYpMZWwrCQhP3n-382" target="lM22bVPYpMZWwrCQhP3n-213">
          <mxGeometry relative="1" as="geometry">
            <Array as="points">
              <mxPoint x="1020" y="3936" />
              <mxPoint x="1020" y="3772" />
            </Array>
          </mxGeometry>
        </mxCell>
        <mxCell id="lM22bVPYpMZWwrCQhP3n-384" value="" style="line;strokeWidth=1;rotatable=0;dashed=0;labelPosition=right;align=left;verticalAlign=middle;spacingTop=0;spacingLeft=6;points=[];portConstraint=eastwest;" vertex="1" parent="1">
          <mxGeometry x="1040" y="3955" width="60" height="10" as="geometry" />
        </mxCell>
        <mxCell id="lM22bVPYpMZWwrCQhP3n-385" value="" style="line;strokeWidth=1;rotatable=0;dashed=0;labelPosition=right;align=left;verticalAlign=middle;spacingTop=0;spacingLeft=6;points=[];portConstraint=eastwest;" vertex="1" parent="1">
          <mxGeometry x="512" y="3790" width="60" height="10" as="geometry" />
        </mxCell>
        <mxCell id="lM22bVPYpMZWwrCQhP3n-386" value="" style="line;strokeWidth=1;rotatable=0;dashed=0;labelPosition=right;align=left;verticalAlign=middle;spacingTop=0;spacingLeft=6;points=[];portConstraint=eastwest;" vertex="1" parent="1">
          <mxGeometry x="-30" y="3855" width="60" height="10" as="geometry" />
        </mxCell>
        <mxCell id="lM22bVPYpMZWwrCQhP3n-387" value="" style="line;strokeWidth=1;rotatable=0;dashed=0;labelPosition=right;align=left;verticalAlign=middle;spacingTop=0;spacingLeft=6;points=[];portConstraint=eastwest;" vertex="1" parent="1">
          <mxGeometry x="-63.03" y="3450" width="60" height="10" as="geometry" />
        </mxCell>
        <mxCell id="lM22bVPYpMZWwrCQhP3n-388" value="product_id" style="ellipse;whiteSpace=wrap;html=1;align=center;fontStyle=4;" vertex="1" parent="1">
          <mxGeometry x="-490.16" y="3680" width="100" height="40" as="geometry" />
        </mxCell>
        <mxCell id="lM22bVPYpMZWwrCQhP3n-389" style="edgeStyle=orthogonalEdgeStyle;rounded=0;orthogonalLoop=1;jettySize=auto;html=1;exitX=0.5;exitY=0;exitDx=0;exitDy=0;entryX=0.668;entryY=0.953;entryDx=0;entryDy=0;entryPerimeter=0;" edge="1" parent="1" source="lM22bVPYpMZWwrCQhP3n-388" target="lM22bVPYpMZWwrCQhP3n-184">
          <mxGeometry relative="1" as="geometry">
            <Array as="points">
              <mxPoint x="-460" y="3680" />
              <mxPoint x="-460" y="3580" />
              <mxPoint x="-523" y="3580" />
            </Array>
          </mxGeometry>
        </mxCell>
        <mxCell id="lM22bVPYpMZWwrCQhP3n-390" value="" style="line;strokeWidth=1;rotatable=0;dashed=0;labelPosition=right;align=left;verticalAlign=middle;spacingTop=0;spacingLeft=6;points=[];portConstraint=eastwest;" vertex="1" parent="1">
          <mxGeometry x="-1344.97" y="3835" width="60" height="10" as="geometry" />
        </mxCell>
        <mxCell id="lM22bVPYpMZWwrCQhP3n-391" value="" style="line;strokeWidth=1;rotatable=0;dashed=0;labelPosition=right;align=left;verticalAlign=middle;spacingTop=0;spacingLeft=6;points=[];portConstraint=eastwest;" vertex="1" parent="1">
          <mxGeometry x="-804" y="4060" width="60" height="10" as="geometry" />
        </mxCell>
        <mxCell id="lM22bVPYpMZWwrCQhP3n-392" value="" style="line;strokeWidth=1;rotatable=0;dashed=0;labelPosition=right;align=left;verticalAlign=middle;spacingTop=0;spacingLeft=6;points=[];portConstraint=eastwest;" vertex="1" parent="1">
          <mxGeometry x="-460" y="4110" width="60" height="10" as="geometry" />
        </mxCell>
        <mxCell id="lM22bVPYpMZWwrCQhP3n-393" value="" style="line;strokeWidth=1;rotatable=0;dashed=0;labelPosition=right;align=left;verticalAlign=middle;spacingTop=0;spacingLeft=6;points=[];portConstraint=eastwest;" vertex="1" parent="1">
          <mxGeometry x="338" y="3125" width="60" height="10" as="geometry" />
        </mxCell>
      </root>
    </mxGraphModel>
  </diagram>
</mxfile>
